<svg xmlns="http://www.w3.org/2000/svg" width="268.035" height="213.919" viewBox="0 0 268.035 213.919"><g opacity="0.301"><path d="M389.192,1572.448H439.4a6.908,6.908,0,0,0,5.962-3.44l31.306-53.958a6.9,6.9,0,0,0-2.741-9.551l-40.74-21.574a6.853,6.853,0,0,0-3.238-.8H408.308a6.894,6.894,0,0,0-6.892,6.891v41.271l-18.153,30.759a6.892,6.892,0,0,0,5.929,10.4Z" transform="translate(-382.31 -1470.9)" fill="#f3b52a"/><path d="M486.493,1516.136l-89.187-25.876a6.912,6.912,0,0,0-8.4,9l26.955,73.708a6.911,6.911,0,0,0,5.082,4.367,5.742,5.742,0,0,0,1.4.149,6.969,6.969,0,0,0,5.016-2.142l23.8-25.128,36.888-21.508a6.9,6.9,0,0,0-1.545-12.573Z" transform="translate(-285.842 -1363.567)" fill="#f3b52a"/><path d="M519.509,1539.562l-47.4-42.286a7.175,7.175,0,0,0-2.093-1.279l-33.682-13.155a7.18,7.18,0,0,0-4.916-.032L396.009,1496a6.884,6.884,0,0,0-4.467,6.363l-1,74.586a6.843,6.843,0,0,0,2.292,5.232,6.953,6.953,0,0,0,4.6,1.761,7.526,7.526,0,0,0,.863-.05l46.7-5.981a6.9,6.9,0,0,0,1.544-.381l70.785-26.375a6.878,6.878,0,0,0,2.176-11.591Z" transform="translate(-253.785 -1482.392)" fill="#f3b52a"/></g></svg>