<svg xmlns="http://www.w3.org/2000/svg" width="26.175" height="20.89" viewBox="0 0 26.175 20.89"><g transform="translate(-195 -2089.139)"><path d="M382.982,1491.85h4.9a.674.674,0,0,0,.582-.336l3.057-5.269a.673.673,0,0,0-.268-.933l-3.978-2.107a.67.67,0,0,0-.316-.078h-2.113a.673.673,0,0,0-.673.673v4.03l-1.773,3a.673.673,0,0,0,.579,1.015Z" transform="translate(-187.31 607.205)" fill="#f3b52a"/><path d="M398.061,1492.557l-8.709-2.527a.675.675,0,0,0-.821.879l2.632,7.2a.675.675,0,0,0,.5.426.559.559,0,0,0,.136.015.68.68,0,0,0,.49-.209l2.324-2.454,3.6-2.1a.674.674,0,0,0-.151-1.228Z" transform="translate(-183.466 611.482)" fill="#f3b52a"/><path d="M403.138,1487.975l-4.629-4.129a.7.7,0,0,0-.2-.125l-3.289-1.285a.7.7,0,0,0-.48,0l-3.458,1.288a.672.672,0,0,0-.436.621l-.1,7.284a.668.668,0,0,0,.224.511.679.679,0,0,0,.449.172.715.715,0,0,0,.084-.005l4.561-.584a.677.677,0,0,0,.151-.037l6.912-2.576a.672.672,0,0,0,.212-1.132Z" transform="translate(-182.189 606.747)" fill="#f3b52a"/></g></svg>