<svg xmlns="http://www.w3.org/2000/svg" width="35.155" height="27.938" viewBox="0 0 35.155 27.938"><g transform="translate(-1058.058 -3150.98)"><path d="M136.046,1709.988h6.586a.91.91,0,0,0,.783-.449l4.1-7.044a.9.9,0,0,0,.088-.7.911.911,0,0,0-.446-.547l-5.347-2.818a.9.9,0,0,0-.422-.1h-2.839a.9.9,0,0,0-.9.9v5.391l-2.38,4.018a.893.893,0,0,0-.007.9A.906.906,0,0,0,136.046,1709.988Zm3.284-4.672a.869.869,0,0,0,.128-.455v-4.736h1.708l4.317,2.275-3.372,5.79h-4.483Z" transform="translate(922.914 1454.254)" fill="#f3b52a"/><path d="M151.986,1706.156l-11.7-3.379a.914.914,0,0,0-.915.253.9.9,0,0,0-.189.921l3.538,9.628a.9.9,0,0,0,.665.57.822.822,0,0,0,.182.021.917.917,0,0,0,.658-.28l3.122-3.284,4.837-2.809a.9.9,0,0,0,.442-.888A.911.911,0,0,0,151.986,1706.156Zm-5.657,2.96a.9.9,0,0,0-.2.159l-2.211,2.322-2.42-6.6,7.96,2.3Z" transform="translate(932.389 1464.75)" fill="#f3b52a"/><path d="M157.375,1705.317l-6.221-5.523a.887.887,0,0,0-.273-.165l-4.419-1.718a.955.955,0,0,0-.645-.007l-4.641,1.725a.9.9,0,0,0-.587.83l-.132,9.742a.906.906,0,0,0,.9.911c.037,0,.074,0,.115-.007l6.127-.78a1.01,1.01,0,0,0,.2-.05l9.286-3.443a.9.9,0,0,0,.287-1.515Zm-10.106,3.237-4.989.634.108-8.088,3.74-1.387,3.946,1.533,4.976,4.422Z" transform="translate(935.537 1453.129)" fill="#f3b52a"/></g></svg>