<svg xmlns="http://www.w3.org/2000/svg" width="187.487" height="163.862" viewBox="0 0 187.487 163.862"><g transform="translate(-11.174 -36.503)"><g transform="translate(11.174 80.052)"><path d="M38.624,249.61c36.61,23.492,95.967,23.492,132.578,0s36.614-61.581,0-85.073-95.967-23.5-132.578,0S2.033,226.118,38.624,249.61Z" transform="translate(-11.174 -146.916)" fill="#f5f5f5"/></g><g transform="translate(177.553 141.838)"><path d="M435.294,320.949l-1.826-1.041a31.473,31.473,0,0,1-.221-8.977c.919-5.837,4.895-7.853,6.338-7.269s1.783,2.307-.824,5.68A19.454,19.454,0,0,0,435.294,320.949Z" transform="translate(-433.004 -303.565)" fill="#37474f"/><path d="M436.7,319.906h.02a.13.13,0,0,0,.11-.146c-.753-5.467,1.444-11.438,3.913-13.864a.131.131,0,1,0-.185-.185c-2.513,2.457-4.753,8.539-3.984,14.085a.126.126,0,0,0,.126.11Z" transform="translate(-435.073 -304.841)" fill="#fff"/><path d="M441.775,331.585c.288.166.884-.2,1.112-.347a2.762,2.762,0,0,0,.915-1.053,2.56,2.56,0,0,0,.229-1.55,5.951,5.951,0,0,0-.193-.824l-.233-.789a2.03,2.03,0,0,1-.114-.789,2.1,2.1,0,0,1,1-1.262,2.081,2.081,0,0,0,.994-1.507,2.319,2.319,0,0,0-.584-1.377c-.312-.394-.686-.753-.97-1.183a1.6,1.6,0,0,1-.331-1.022,1.707,1.707,0,0,1,.221-.643,9,9,0,0,0,.7-1.282,1.294,1.294,0,0,0-.225-1.365,1.511,1.511,0,0,0-1.132-.28,2.571,2.571,0,0,0-1.057.371c-1.045.58-1.641,1.818-2.761,2.268a10.9,10.9,0,0,1-1.341.327,1.657,1.657,0,0,0-1.108.761c-.394.813.347,1.814.063,2.678-.256.765-1,1.057-1.416,1.747a1.625,1.625,0,0,0-.193,1,4.734,4.734,0,0,0,.422,1.692,11.829,11.829,0,0,0,.927,1.522S441.731,331.561,441.775,331.585Z" transform="translate(-434.416 -311.274)" fill="#455a64"/><path d="M443.908,331.253h0a.13.13,0,0,0,.126-.138c-.213-5.171,2.225-10.878,4-12.539a.13.13,0,0,0,0-.185.126.126,0,0,0-.181,0c-1.81,1.692-4.3,7.494-4.078,12.74a.134.134,0,0,0,.138.122Z" transform="translate(-439.515 -312.52)" fill="#fff"/><path d="M445.908,334.243h.039a17.44,17.44,0,0,1,3.751-.6.134.134,0,0,0,.126-.138.126.126,0,0,0-.138-.122,17.656,17.656,0,0,0-3.818.615.13.13,0,0,0-.087.162A.134.134,0,0,0,445.908,334.243Z" transform="translate(-440.738 -321.619)" fill="#fff"/></g><g transform="translate(22.981 88.345)"><g transform="translate(0 0)"><path d="M115.968,203.25,107.22,208.3l103.528,64.823,17.5-10.1Z" transform="translate(-81.145 -189.323)" fill="#ffb52c"/><path d="M93.889,195.55,92.43,206.5l20.415-11.785Z" transform="translate(-72.188 -184.151)" fill="#ffb52c"/><path d="M192.879,332.176l-13.122,7.577L165.9,331.758c-14.2-8.184-32.043-13.773-51.669-16.171a178.227,178.227,0,0,0-43.749.15l-2.406-5.956,8.953-1.388a181.912,181.912,0,0,1,49.106-.765c20.08,2.445,38.366,8.165,52.876,16.542Z" transform="translate(-57.442 -251.742)" fill="#ffb52c"/><path d="M49.267,301.44l8.019,17.276L41.11,311.983Z" transform="translate(-41.11 -248.784)" fill="#ffb52c"/><path d="M343.674,243.526,330.552,251.1l-13.852-8c-14.511-8.378-24.419-18.932-28.655-30.528a36.383,36.383,0,0,1,1.329-28.351l2.4-5.167L303.123,178a35.542,35.542,0,0,0-1.294,27.7c4.137,11.328,13.8,21.642,28,29.826Z" transform="translate(-189.281 -174.032)" fill="#ffb52c"/><path d="M274.5,172.649l29.921,4.631-11.659-9.34Z" transform="translate(-182.446 -167.94)" fill="#ffb52c"/><path d="M340.13,356.242l14.582,8.421,32.078-18.522-14.582-8.421Z" transform="translate(-222.19 -270.755)" fill="#ffb52c"/></g></g><g transform="translate(83.703 122.616)"><ellipse cx="15.371" cy="8.875" rx="15.371" ry="8.875" transform="translate(59.751 33.345)" opacity="0.1"/><ellipse cx="4.13" cy="2.382" rx="4.13" ry="2.382" opacity="0.1"/></g><g transform="translate(69.914 36.503)"><g transform="translate(0 0)"><path d="M199.352,165.285h0l-3.676-2.122h0c-.876-.5-2.126-.394-3.735.536a10.989,10.989,0,0,0-5.321,9.51c0,1.925.5,3.345,1.507,3.944l3.672,2.13h0c.884.532,2.154.426,3.8-.525a10.937,10.937,0,0,0,5.262-9.553C200.859,167.277,200.35,165.868,199.352,165.285Z" transform="translate(-176.16 -113.025)" fill="#37474f"/><path d="M191.9,39.535l-3.739-2.15c-2.647-1.515-6.492-1.152-11.352,1.653C168.02,44.11,161.958,53.8,160.1,64.032l3.656,2.114,9.778-2.181c1.12-4.272,2.785-7.3,6.642-9.517a9.072,9.072,0,0,1,1.578-.73,7.831,7.831,0,0,1,.107,1.321c0,3.3-2.228,7.064-11.139,15.923V84.988l3.656,2.11,10.46-6.035V73.305C190,67.748,195.953,59.449,195.953,49.3,195.953,44.524,194.533,41.085,191.9,39.535Z" transform="translate(-160.1 -36.503)" fill="#37474f"/><path d="M179.952,76.317c8.914-8.859,11.142-12.622,11.142-15.919,0-2.891-1.3-5.029-5.325-2.706-3.838,2.217-5.522,5.246-6.622,9.517L169.37,69.39c1.858-10.231,7.924-19.922,16.712-24.995,9.778-5.636,15.485-1.424,15.485,8.145,0,10.152-5.94,18.451-11.139,24.009v7.758l-10.46,6.035Z" transform="translate(-165.714 -39.747)" fill="#455a64"/><path d="M195.89,178.566a10.98,10.98,0,0,1,5.321-9.51c3.467-2,5.262-.233,5.262,3.4a10.984,10.984,0,0,1-5.262,9.553C197.681,184.045,195.89,182.195,195.89,178.566Z" transform="translate(-181.774 -116.268)" fill="#455a64"/><path d="M201.729,83.2c0,3.3-2.228,7.06-11.142,15.919l-3.656-2.11c8.914-8.863,11.139-12.622,11.139-15.923a7.4,7.4,0,0,0-.106-1.317C200.762,78.8,201.729,80.721,201.729,83.2Z" transform="translate(-176.348 -62.547)" fill="#263238"/></g></g><g transform="translate(135.435 89.267)"><g transform="translate(0 0)"><path d="M400.76,205.794c1.55-.367,3.254.734,4.252,3.155s2.99,8.634,3.4,10.255c.185.726-5.337,7.167-5.128,7.072.059-.028-1.8-3.155-1.8-3.155L404.168,219l-1.676-4.477Z" transform="translate(-371.359 -191.744)" fill="#ffa8a7"/><path d="M400.556,346.263c.209.079.26.477.292,1.274.024.6.154,1.653-.548,1.862a2.206,2.206,0,0,1-2.189-.465c-.564-.706-.947-1.329-1.751-2.193a6.066,6.066,0,0,1-1.731-2.5c-.256-.947-.043-1.361.6-1.637.891-.394,2.292.86,2.99,1.057C398.82,343.845,400.343,346.2,400.556,346.263Z" transform="translate(-367.581 -274.588)" fill="#263238"/><path d="M405.635,348.747v.978a2.4,2.4,0,0,1-2.469.067c-.039-.095-.256-1.972-.256-1.972Z" transform="translate(-372.661 -277.793)" fill="#ffa8a7"/><path d="M376.093,365.19s.28.848.434,1.578a4.288,4.288,0,0,1,.083,2.019c-.209.442-1.014.73-2.26.722a7.45,7.45,0,0,0-2.935,1.025,4.5,4.5,0,0,1-2.8.394,3.562,3.562,0,0,1-2.441-1.238c-.177-.45.051-.682,2.67-1.8a14.78,14.78,0,0,0,4.031-2.647Z" transform="translate(-350.384 -288.312)" fill="#263238"/><path d="M386.45,362.51v1.14c0,.414-.485,1.029-1.747.986-.891-.032-1.511-.272-1.475-1.006v-1.053Z" transform="translate(-360.741 -286.689)" fill="#ffa8a7"/><path d="M389.693,274.689a23.026,23.026,0,0,0-1.183-5.021s.552-4.315.872-8.464c.572-7.435.11-9.861-1.349-13.2,0,0-12.476-1.262-12.858,3.921-.473,6.457.158,18.932.327,21.216s.394,3.309,1.183,8.074c.615,3.625,1.578,11.939,1.578,11.939a3.416,3.416,0,0,0,3.222-.067s1.022-10.381.915-13.016a22.424,22.424,0,0,0-1.014-5.723s.789-10.523,1-12.2c0,0,.394,3.341.56,5.621s.848,4.461,1.511,8.7c.572,3.672,1.633,11.888,1.633,11.888a2.317,2.317,0,0,0,2.714-.1S390.143,277.9,389.693,274.689Z" transform="translate(-355.761 -217.264)" fill="#37474f"/><path d="M384.56,200.241l.588,4.82,4.24-.383-.485-5.348Z" transform="translate(-361.549 -187.871)" fill="#ffa8a7"/><path d="M388.019,208.3a3.627,3.627,0,0,0-3.68-2.367c-.426.079-.789.142-1.183.221-.036,1.112-2.13,1.688-4.212,1.014-.627.177-1.2.363-1.724.548-1.491.532-2.09,3.009-2.126,7.155s-.473,14.487-.473,14.487l1.743.548.816-3.025.327,3.621a12.953,12.953,0,0,0,6.023-.028c4.485-.978,5.877-3.4,5.877-3.4a21.78,21.78,0,0,0-3.195-7.833C388.441,213.261,388.709,210.189,388.019,208.3Z" transform="translate(-355.529 -191.843)" fill="#ffb52c"/><path d="M375.593,229.288l2.639-3-2.7,5.4Z" transform="translate(-356.08 -204.198)" opacity="0.2"/><path d="M348.721,209.76s-2.591.205-3.7,1.885-5.455,7.888-5.455,7.888-6.914-3.459-7.253-3.869-.146-1.238-.055-1.7.249-1.471.351-1.755c.177-.5-.56-.363-.99.1s-.627,1.373-.844,1.53-1.862-1.735-2.658-2.651-1.183-1.55-1.708-1.183c-.394.272-.138.816.434,1.6a9.615,9.615,0,0,1,.738,1.037c.071.138-.142.248-.225.323-.154.142-.43.367-.45.584a2.118,2.118,0,0,1,0,.355c-.075.26-.394.394-.489.639a3.156,3.156,0,0,0-.032.58c-.024.126-.091.237-.114.363a.868.868,0,0,0,.256.674,6.476,6.476,0,0,0,2.063,1.329c.611.339,1.242.485,1.944.789s9.013,6.682,10.306,5.972,7.774-8.239,7.774-8.239A5.589,5.589,0,0,0,348.721,209.76Z" transform="translate(-326.218 -194.187)" fill="#ffa8a7"/><path d="M377.163,177.453s-1.657-1.866-.45-3.763c1.424-2.232,4.165-2.615,7.415-1.743a5.766,5.766,0,0,1,4.066,5.234c.154,2.367-6.492,4.141-6.338,5.774Z" transform="translate(-356.531 -171.027)" fill="#263238"/><path d="M374.993,188.41s-.9,1.448-.789,1.578a2.28,2.28,0,0,0,.73.292Z" transform="translate(-355.272 -181.258)" fill="#f28f8f"/><path d="M378.836,176.139c-.9.5-2.457,1.412-2.761,4.788-.323,3.467.481,4.646.962,5.088a4.477,4.477,0,0,0,2.82.075,8.948,8.948,0,0,0,4.39-3.384c1.223-2.134,1.412-4.938-.095-6A5.539,5.539,0,0,0,378.836,176.139Z" transform="translate(-356.366 -173.567)" fill="#ffa8a7"/><path d="M382.146,175.084s-.71,3.155.3,5.128c0,0,.525-1.246,1.578-.923s1.014,1.747.2,2.5a1.578,1.578,0,0,1-1.641.394,7.072,7.072,0,0,0,1.578,2.394,5.2,5.2,0,0,0,5.893-1.68c2.481-2.8,2.019-7.687-1.779-8.839A6.4,6.4,0,0,0,382.146,175.084Z" transform="translate(-359.94 -172.362)" fill="#263238"/><path d="M383.65,189.542v4.339l5.1-.7a4.528,4.528,0,0,0,3.913-4.485V185.85l-4.047,2.591-1.913,1.692-1.937-.158Z" transform="translate(-360.998 -179.708)" fill="#263238"/><path d="M375.031,171.647a4.1,4.1,0,0,0,2.761,6.5l2.465-7.372A4.5,4.5,0,0,0,375.031,171.647Z" transform="translate(-355.29 -170.278)" fill="#263238"/><path d="M381.463,190.7a.8.8,0,1,1,.5-1.526Z" transform="translate(-359.339 -181.698)" fill="#263238"/><path d="M393.72,277.944l.237-2.52A9.545,9.545,0,0,0,397.775,274a5.16,5.16,0,0,1-3.033,1.889l-.233,3.211-.138,5.258Z" transform="translate(-367.096 -233.09)" fill="#263238"/></g></g></g></svg>