<svg xmlns="http://www.w3.org/2000/svg" width="159.586" height="149.224" viewBox="0 0 159.586 149.224"><g transform="translate(0 69.494)"><path d="M438.481,1702.493c-31.169-15.569-31.169-40.808,0-56.376s81.681-15.568,112.84,0,31.159,40.808,0,56.376S469.633,1718.063,438.481,1702.493Z" transform="translate(-415.104 -1634.44)" fill="#f5f5f5"/></g><g transform="translate(16.795 11.895)"><ellipse cx="21.566" cy="12.399" rx="21.566" ry="12.399" transform="translate(83.531 91.815)" fill="#e6e6e6"/><path d="M478.213,1661.292c2.338,1.341,2.338,3.511,0,4.86a9.37,9.37,0,0,1-8.461,0c-2.341-1.345-2.333-3.511,0-4.86A9.373,9.373,0,0,1,478.213,1661.292Z" transform="translate(-403.908 -1563.166)" fill="#e6e6e6"/><path d="M427.98,1626.11v5.676l13.665-7.856v7.856l11.768-6.768v-5.677l-5.884,3.385v-2.18l27.33-15.709v2.18l-5.888,3.38,0,13.533,5.884-3.384v2.18l-5.888,3.384,0,6.764-1.9,1.088v-22.474l-11.768,6.765v7.857l-15.562,8.944V1627.2l-11.768,6.765v52.811l11.768-6.768V1664.3l6.833-3.928v-5.677l-11.768,6.765v14.62l-1.9,1.093V1653.6l1.9-1.092v6.769l13.665-7.856v10.033l-6.833,3.928v13.532l5.884-3.384v2.18l-21.443,12.329v-65.02l21.443-12.329v2.18Z" transform="translate(-426.087 -1592.508)" fill="#e0e0e0"/><path d="M480.274,1661.794l-22.391,12.872v-7.853l-12.717,7.309v-2.176l5.884-3.384v-21.386l-13.665,7.853v-7.853l-6.833,3.925v-8.944l1.9-1.089v6.765l25.433-14.621v-6.765l1.9-1.088v22.474l11.768-6.765V1634.3l1.893-1.092v24.657l-7.777,4.472v-2.18l5.884-3.384v-13.529l-13.665,7.852v-15.709l-18.6,10.693v5.676l13.665-7.853v23.565l4.936-2.84v-7.857l7.781-4.472v2.18l-5.884,3.384V1671.4l18.6-10.693v-44.951l-5.884,3.38v-2.176l5.884-3.384v-13.533l-19.549,11.24v-2.18l21.443-12.329Z" transform="translate(-423.724 -1596.774)" fill="#e0e0e0"/></g><g transform="translate(17.341 12.21)"><path d="M447.891,1612.9l-21.447,12.33v65.019l2.511,1.447,21.442-12.328v-2.181l-2.514-1.447-3.37,1.938v-10.64l6.832-3.927v-10.033l-2.514-1.447-11.143,6.411v-3.861l-2.514-1.447-1.9,1.092v23.558l2.517,1.445,1.895-1.092v-14.627l9.247-5.318v2.783L440.1,1664.5v15.709l-9.248,5.322v-49.925l9.255-5.319v4.967l2.519,1.447,15.558-8.945v-7.853l9.255-5.319v19.581l2.514,1.447,1.9-1.087v-6.765l5.884-3.387V1622.2l-2.517-1.445-3.367,1.938v-10.64l5.884-3.381v-2.181l-2.517-1.445-27.326,15.709v2.179l2.514,1.447,3.37-1.938v2.783l-9.255,5.321v-4.964L442,1624.136l-11.145,6.409v-2.783l19.551-11.233v-2.176Z" transform="translate(-426.444 -1592.713)" fill="#f1b528"/><path d="M483.15,1598.427l-2.517-1.446-21.442,12.33v2.179l2.514,1.447,17.035-9.795v10.64l-5.887,3.384v2.177l2.517,1.445,3.37-1.934v42.059l-16.087,9.247v-10.626l5.892-3.395v-2.179l-2.522-1.446-7.78,4.473v7.856l-2.422,1.4v-20.676l-2.514-1.446-11.151,6.41v-2.794l16.087-9.247v12.818l2.514,1.445,11.151-6.409v10.64l-5.884,3.384v2.179l2.514,1.447,7.78-4.462v-24.667l-2.517-1.447-1.893,1.092v6.768l-9.255,5.318v-19.589l-2.517-1.442-1.893,1.087v6.765l-22.916,13.175v-3.863l-2.517-1.453-1.9,1.089v8.944l2.517,1.447,4.315-2.482v4.964l2.519,1.445,11.148-6.409v18.5l-5.884,3.4v2.178l2.514,1.447,10.2-5.863v4.942l2.514,1.447,22.393-12.873Z" transform="translate(-424.08 -1596.98)" fill="#f1b528"/><g transform="translate(0 0.001)" opacity="0.1"><path d="M450.4,1611.627l-2.514-1.446-21.446,12.329,2.517,1.442Z" transform="translate(-426.444 -1589.996)"/><path d="M451.919,1610.756l-2.514-1.446,21.443-12.329,2.517,1.446Z" transform="translate(-414.294 -1596.981)"/><path d="M442.994,1618.975l-2.514-1.446-11.151,6.41v2.893Z" transform="translate(-424.918 -1586.107)"/><path d="M447.519,1618.241l2.514,1.446-11.768,6.768v-2.893Z" transform="translate(-420.189 -1585.731)"/><path d="M470.313,1606.489l-2.517-1.446-27.327,15.713,2.514,1.443Z" transform="translate(-419.023 -1592.714)"/><path d="M460.856,1612.8l5.884-3.384-2.514-1.446-5.888,3.384Z" transform="translate(-409.566 -1591.167)"/><path d="M462.021,1616.762l-2.517-1.446-3.356,1.92-.011,2.91Z" transform="translate(-410.731 -1587.278)"/><path d="M451.3,1618.209l-2.514-1.447,1.893-1.088,2.517,1.443Z" transform="translate(-414.622 -1587.089)"/><path d="M456.716,1620.809l-22.92,13.175v2.892l25.433-14.621Z" transform="translate(-422.553 -1584.371)"/><path d="M435.323,1627.393l-1.893,1.088-2.517-1.446,1.9-1.088Z" transform="translate(-424.08 -1581.652)"/><path d="M433.43,1638.758l1.893-1.092-2.514-1.446-1.9,1.092Z" transform="translate(-424.08 -1576.216)"/><path d="M441.1,1655.645l-2.517-1.446-9.255,5.322v2.889Z" transform="translate(-424.918 -1566.702)"/><path d="M444.149,1652.721l-2.514-1.446-3.37,1.938v2.893Z" transform="translate(-420.189 -1568.25)"/><path d="M442.213,1641.357l2.517,1.446-6.833,3.928-2.517-1.446Z" transform="translate(-421.715 -1573.497)"/><path d="M447.462,1636.954l-13.665,7.856v-2.893l11.151-6.41Z" transform="translate(-422.553 -1576.593)"/><path d="M438.265,1637.1l13.665-7.856-2.514-1.446-11.151,6.41Z" transform="translate(-420.189 -1580.671)"/><path d="M440.469,1647.307l5.884-3.38,2.514,1.446-5.884,3.381Z" transform="translate(-419.023 -1572.138)"/><path d="M449.623,1641.357l2.514,1.446-4.936,2.836v-2.893Z" transform="translate(-415.46 -1573.497)"/><path d="M448.785,1637.768l7.781-4.473,2.514,1.446-7.781,4.472Z" transform="translate(-414.622 -1577.764)"/><path d="M451.669,1650.927l18.6-10.693-2.514-1.446-16.087,9.247Z" transform="translate(-413.096 -1574.857)"/><path d="M462.271,1637.666l-5.884,3.384-2.514-1.446,5.884-3.384Z" transform="translate(-411.929 -1576.216)"/><path d="M463.437,1627.393l-11.768,6.765v-2.893l9.255-5.318Z" transform="translate(-413.096 -1581.652)"/></g><g transform="translate(0 4.715)" opacity="0.2"><path d="M428.962,1684.706v-65.02l-2.517-1.443v65.02Z" transform="translate(-426.444 -1590.444)"/><path d="M451.919,1608.669v-2.18l-2.514-1.446v2.18Z" transform="translate(-414.294 -1597.429)"/><path d="M446.83,1621.15v-5.676l-2.514,1.446v2.783Z" transform="translate(-416.986 -1591.909)"/><path d="M442.983,1618.941v-2.18l-2.514-1.443v2.177Z" transform="translate(-419.023 -1591.991)"/><path d="M464.7,1613.6l-2.514-1.446v-10.64l2.514-1.446Z" transform="translate(-407.529 -1600.064)"/><path d="M460.856,1613.8v-2.176l-2.517-1.446v2.176Z" transform="translate(-409.566 -1594.71)"/><path d="M455.767,1632.813l-2.514-1.443v-19.585l2.514-1.446Z" transform="translate(-412.258 -1594.627)"/><path d="M451.3,1624.6v-6.765l-2.514-1.446v6.764Z" transform="translate(-414.622 -1591.427)"/><path d="M433.43,1637.05V1628.1l-2.517-1.447v8.945Z" transform="translate(-424.08 -1585.99)"/><path d="M451.3,1623.181l-2.514,1.446v12.816l2.514,1.446Z" transform="translate(-414.622 -1587.831)"/><path d="M437.9,1628.468v-7.856l-2.517,1.446v4.964Z" transform="translate(-421.715 -1589.19)"/><path d="M433.43,1661.945V1638.38l-2.517-1.447V1660.5Z" transform="translate(-424.08 -1580.553)"/><path d="M437.9,1661.082v-15.709l-2.517-1.446v15.709Z" transform="translate(-421.715 -1576.852)"/><path d="M442.366,1644.267v-5.676l-2.517,1.446v2.784Z" transform="translate(-419.351 -1579.676)"/><path d="M437.9,1638.741v-7.856l-2.517,1.446v4.964Z" transform="translate(-421.715 -1583.754)"/><path d="M444.317,1632.331l2.514-1.446v21.389l-2.514-1.447Z" transform="translate(-416.986 -1583.754)"/><path d="M442.983,1649.763l-2.514-1.446v-2.18l2.514,1.446Z" transform="translate(-419.023 -1575.683)"/><path d="M451.3,1645.522v-7.856l-2.514-1.446v7.856Z" transform="translate(-414.622 -1580.931)"/><path d="M451.3,1651.582v-7.853l-2.514,1.446v4.96Z" transform="translate(-414.622 -1576.957)"/><path d="M464.7,1655.29v-44.951l-2.514,1.446v42.059Z" transform="translate(-407.529 -1594.627)"/><path d="M456.387,1642.059v-2.18l-2.514-1.446v2.18Z" transform="translate(-411.929 -1579.76)"/><path d="M460.235,1641.849v-13.533l-2.514,1.45V1640.4Z" transform="translate(-409.893 -1585.113)"/><path d="M460.235,1629.734v-6.765l-2.514-1.446v6.765Z" transform="translate(-409.893 -1588.708)"/></g><path d="M429.984,1627.262v5.677l13.665-7.856v7.856l11.768-6.768v-5.676l-5.884,3.384v-2.18l27.33-15.709v2.18l-5.884,3.381v13.533l5.884-3.384v2.18l-5.884,3.384v6.765l-1.9,1.088v-22.474l-11.768,6.765v7.856l-15.558,8.945v-7.856l-11.772,6.765v52.807l11.772-6.764v-15.709l6.833-3.928v-5.677l-11.772,6.765v14.621l-1.893,1.091v-23.565l1.893-1.092v6.768l13.665-7.856v10.033l-6.833,3.928v13.533l5.884-3.384v2.18L428.09,1691.19v-65.02l21.443-12.325v2.177Z" transform="translate(-425.573 -1592.213)" fill="#f1b528"/><path d="M482.28,1662.947l-22.394,12.873v-7.853l-12.717,7.309v-2.18l5.884-3.381v-21.389l-13.662,7.856v-7.856l-6.833,3.928v-8.945l1.893-1.088v6.765l25.433-14.621V1627.6l1.9-1.092v22.478l11.768-6.765v-6.764l1.9-1.092v24.654l-7.781,4.476v-2.18l5.884-3.384V1644.4l-13.665,7.857v-15.709l-18.6,10.693v5.676l13.665-7.856v23.566l4.936-2.837v-7.856l7.781-4.473v2.18l-5.884,3.384v13.529l18.6-10.693v-44.951l-5.884,3.381v-2.177l5.884-3.384v-13.532l-19.549,11.24v-2.18l21.446-12.329Z" transform="translate(-423.208 -1596.479)" fill="#f1b528"/></g><g transform="translate(22.404 20.151)"><path d="M445.872,1652.893h0a.415.415,0,0,1-.416-.414v-2.068a.414.414,0,0,1,.416-.414h0a.41.41,0,0,1,.411.41v2.072a.411.411,0,0,1-.408.414Z" transform="translate(-421.446 -1576.866)" fill="#445a64"/><path d="M446.5,1649.978h0a.414.414,0,0,1-.416-.414v-1.35l-1.178.677a.42.42,0,0,1-.569-.151.412.412,0,0,1,.147-.563l0,0,1.8-1.035a.418.418,0,0,1,.569.151.4.4,0,0,1,.055.2v2.067a.41.41,0,0,1-.4.42Z" transform="translate(-422.07 -1578.408)" fill="#445a64"/><path d="M441.83,1650.663a.414.414,0,0,1-.2-.769l0,0,2.193-1.26a.414.414,0,0,1,.416.7l-2.2,1.26A.409.409,0,0,1,441.83,1650.663Z" transform="translate(-423.582 -1577.602)" fill="#445a64"/><path d="M439.216,1652.469a.445.445,0,0,1-.208-.057.412.412,0,0,1-.2-.35v-2.083a.416.416,0,0,1,.829-.075.614.614,0,0,1,0,.075v1.352l1.177-.677a.414.414,0,0,1,.563.153l0,0a.408.408,0,0,1-.145.558l-.008,0-1.8,1.035A.434.434,0,0,1,439.216,1652.469Z" transform="translate(-424.968 -1577.114)" fill="#445a64"/><path d="M439.215,1648.961a.412.412,0,0,1-.413-.411h0v-2.067a.412.412,0,0,1,.2-.35l1.8-1.035a.414.414,0,0,1,.411.7l-1.589.922v1.829a.412.412,0,0,1-.413.411Z" transform="translate(-424.968 -1579.471)" fill="#445a64"/><path d="M442.3,1645.856a.414.414,0,0,1-.208-.772l1.6-.9v-1.829a.415.415,0,0,1,.827-.076.33.33,0,0,1,0,.076v2.068a.409.409,0,0,1-.208.35l-1.8,1.032A.4.4,0,0,1,442.3,1645.856Z" transform="translate(-423.333 -1581.148)" fill="#445a64"/><path d="M443.481,1641.566a.411.411,0,0,1-.413-.41v-3.8a.416.416,0,0,1,.829-.076.665.665,0,0,1,0,.076v3.821A.415.415,0,0,1,443.481,1641.566Z" transform="translate(-422.711 -1583.795)" fill="#445a64"/><path d="M444.125,1635.959a.413.413,0,0,1-.413-.412V1634.2l-1.177.675a.415.415,0,0,1-.544-.627.412.412,0,0,1,.128-.075l1.8-1.032a.413.413,0,0,1,.416,0,.408.408,0,0,1,.208.35v2.069A.413.413,0,0,1,444.125,1635.959Z" transform="translate(-423.356 -1585.818)" fill="#445a64"/><path d="M438.02,1637.688a.414.414,0,0,1-.208-.772l3.276-1.882a.413.413,0,0,1,.564.146l0,.005a.416.416,0,0,1-.151.566l-3.279,1.881A.4.4,0,0,1,438.02,1637.688Z" transform="translate(-425.6 -1584.813)" fill="#445a64"/><path d="M434.7,1639.659a.418.418,0,0,1-.416-.409v-2.067a.416.416,0,0,1,.832,0v1.352l1.174-.674a.418.418,0,0,1,.587.043.413.413,0,0,1-.043.584.422.422,0,0,1-.128.075l-1.8,1.032A.411.411,0,0,1,434.7,1639.659Z" transform="translate(-427.358 -1583.866)" fill="#445a64"/><path d="M435.345,1635.8a.415.415,0,0,1-.416-.414v-1.352l-1.173.677a.418.418,0,0,1-.587-.043.413.413,0,0,1,.171-.659l1.8-1.035a.416.416,0,0,1,.569.151.4.4,0,0,1,.055.2v2.069A.415.415,0,0,1,435.345,1635.8Z" transform="translate(-428.002 -1585.904)" fill="#445a64"/><path d="M430.171,1637.044a.429.429,0,0,1-.208-.054.416.416,0,0,1-.208-.35v-2.054a.416.416,0,0,1,.832,0v1.352l1.174-.677a.415.415,0,1,1,.543.627.43.43,0,0,1-.127.075l-1.8,1.052A.44.44,0,0,1,430.171,1637.044Z" transform="translate(-429.755 -1585.24)" fill="#445a64"/><path d="M430.171,1633.794a.413.413,0,0,1-.416-.4v-3.863a.416.416,0,0,1,.832,0h0v3.863A.413.413,0,0,1,430.171,1633.794Z" transform="translate(-429.755 -1587.912)" fill="#445a64"/><path d="M430.171,1628.5a.415.415,0,0,1-.416-.4v-2.068a.415.415,0,0,1,.208-.35l1.8-1.032a.415.415,0,1,1,.543.627.448.448,0,0,1-.127.075l-1.59.913v1.835A.415.415,0,0,1,430.171,1628.5Z" transform="translate(-429.755 -1590.334)" fill="#445a64"/><path d="M435.345,1625.525a.415.415,0,0,1-.416-.414v-1.352l-1.173.675a.418.418,0,0,1-.587-.043.413.413,0,0,1,.043-.584.419.419,0,0,1,.128-.075l1.8-1.032a.417.417,0,0,1,.569.152.4.4,0,0,1,.055.2v2.068A.414.414,0,0,1,435.345,1625.525Z" transform="translate(-428.002 -1591.34)" fill="#445a64"/><path d="M434.7,1629.31a.452.452,0,0,1-.208-.052.422.422,0,0,1-.208-.352v-2.068a.416.416,0,0,1,.832,0v1.352l1.174-.678a.414.414,0,0,1,.416.7l-1.8,1.035A.43.43,0,0,1,434.7,1629.31Z" transform="translate(-427.358 -1589.34)" fill="#445a64"/><path d="M438.071,1628.655a.422.422,0,0,1-.352-.208.411.411,0,0,1,.151-.564l3.363-1.935a.416.416,0,0,1,.564.151v0a.405.405,0,0,1-.144.557l-.008,0-3.36,1.934A.441.441,0,0,1,438.071,1628.655Zm6.724-3.863a.407.407,0,0,1-.353-.206.412.412,0,0,1,.147-.563l.006,0,3.36-1.929a.414.414,0,0,1,.416.7l-3.364,1.931a.4.4,0,0,1-.211.065Z" transform="translate(-425.57 -1591.647)" fill="#445a64"/><path d="M446.865,1622.679a.411.411,0,0,1-.208-.769l1.59-.916v-1.829a.416.416,0,0,1,.832,0v2.068a.414.414,0,0,1-.208.35l-1.8,1.053A.439.439,0,0,1,446.865,1622.679Z" transform="translate(-420.921 -1593.401)" fill="#445a64"/><path d="M448.041,1618.23a.415.415,0,0,1-.416-.414v-2.067a.414.414,0,0,1,.208-.35l1.8-1.032a.415.415,0,1,1,.416.7l-1.59.913v1.829a.414.414,0,0,1-.408.42Z" transform="translate(-420.299 -1595.774)" fill="#445a64"/><path d="M453.244,1615.234a.412.412,0,0,1-.413-.41v-1.345l-1.177.674a.415.415,0,1,1-.549-.623.443.443,0,0,1,.138-.079l1.8-1.032a.419.419,0,0,1,.567.158.409.409,0,0,1,.053.194v2.068A.411.411,0,0,1,453.244,1615.234Z" transform="translate(-418.532 -1596.779)" fill="#445a64"/><path d="M452.6,1628.723a.413.413,0,0,1-.413-.411v-3.88a.416.416,0,0,1,.829-.076.313.313,0,0,1,0,.076v3.861a.414.414,0,0,1-.4.428Zm0-7.765a.413.413,0,0,1-.413-.411v-3.883a.416.416,0,0,1,.829-.076.313.313,0,0,1,0,.076v3.883a.413.413,0,0,1-.413.411Z" transform="translate(-417.886 -1594.744)" fill="#445a64"/><path d="M452.6,1629.274a.405.405,0,0,1-.2-.057.414.414,0,0,1-.208-.352v-2.074a.416.416,0,0,1,.829,0v1.369l1.177-.675a.414.414,0,0,1,.413.7l-1.8,1.032A.4.4,0,0,1,452.6,1629.274Z" transform="translate(-417.885 -1589.345)" fill="#445a64"/><path d="M455.865,1627.753a.414.414,0,0,1-.208-.772l1.59-.916v-1.822a.416.416,0,0,1,.829,0v2.069a.411.411,0,0,1-.208.35l-1.8,1.054A.392.392,0,0,1,455.865,1627.753Z" transform="translate(-416.157 -1590.693)" fill="#445a64"/><path d="M457.048,1623.333a.412.412,0,0,1-.413-.41v-2.072a.408.408,0,0,1,.208-.35l1.8-1.037a.419.419,0,0,1,.587.038.415.415,0,0,1-.038.586.436.436,0,0,1-.136.078l-1.59.913v1.829a.415.415,0,0,1-.405.425Z" transform="translate(-415.531 -1593.077)" fill="#445a64"/><path d="M460.333,1620.085a.41.41,0,0,1-.208-.769l1.593-.916v-1.829a.416.416,0,0,1,.829-.077.642.642,0,0,1,0,.077v2.068a.413.413,0,0,1-.208.351l-1.8,1.054A.446.446,0,0,1,460.333,1620.085Z" transform="translate(-413.795 -1594.793)" fill="#445a64"/><path d="M462.108,1615.244a.413.413,0,0,1-.413-.411v-1.362l-1.177.7a.419.419,0,0,1-.535-.246.414.414,0,0,1,.119-.457l1.8-1.035a.419.419,0,0,1,.567.157.411.411,0,0,1,.053.194v2.068A.417.417,0,0,1,462.108,1615.244Z" transform="translate(-413.772 -1596.771)" fill="#445a64"/><path d="M457.048,1616.456a.388.388,0,0,1-.2-.055.411.411,0,0,1-.208-.352v-2.067a.416.416,0,0,1,.829,0v1.352l1.177-.675a.418.418,0,0,1,.587.038.414.414,0,0,1-.174.664l-1.8,1.032A.391.391,0,0,1,457.048,1616.456Z" transform="translate(-415.531 -1596.123)" fill="#445a64"/><path d="M457.048,1613.057a.412.412,0,0,1-.413-.411v-2.068a.408.408,0,0,1,.208-.35l1.8-1.037a.419.419,0,0,1,.587.038.414.414,0,0,1-.038.586.472.472,0,0,1-.136.08l-1.59.916v1.829a.412.412,0,0,1-.405.417Z" transform="translate(-415.531 -1598.513)" fill="#445a64"/><path d="M460.331,1609.812a.414.414,0,0,1-.208-.772l1.593-.913V1606.3a.416.416,0,0,1,.829-.076.663.663,0,0,1,0,.076v2.067a.411.411,0,0,1-.208.352l-1.8,1.032A.4.4,0,0,1,460.331,1609.812Z" transform="translate(-413.794 -1600.229)" fill="#445a64"/><path d="M462.108,1605.048a.411.411,0,0,1-.413-.41v-1.352l-1.177.675a.42.42,0,0,1-.535-.246.415.415,0,0,1,.119-.458l1.8-1.03a.415.415,0,0,1,.621.35v2.068A.411.411,0,0,1,462.108,1605.048Z" transform="translate(-413.772 -1602.173)" fill="#445a64"/><path d="M449.7,1612.187a.411.411,0,0,1-.208-.77l4.066-2.338a.416.416,0,0,1,.534.246.411.411,0,0,1-.118.456l-4.066,2.338A.431.431,0,0,1,449.7,1612.187Zm8.128-4.666a.413.413,0,0,1-.208-.772l4.065-2.338a.416.416,0,0,1,.534.245.411.411,0,0,1-.118.457l-4.065,2.338A.4.4,0,0,1,457.831,1607.521Z" transform="translate(-419.42 -1601.002)" fill="#445a64"/><path d="M445.873,1612.7a.427.427,0,0,1-.208-.054.408.408,0,0,1-.208-.35v-2.068a.415.415,0,0,1,.827-.076.312.312,0,0,1,0,.076v1.352l1.175-.679a.415.415,0,0,1,.416.7l-1.8,1.052A.448.448,0,0,1,445.873,1612.7Z" transform="translate(-421.447 -1598.148)" fill="#445a64"/><path d="M445.872,1608.837a.414.414,0,0,1-.416-.414v-2.068a.416.416,0,0,1,.827,0v2.078A.411.411,0,0,1,445.872,1608.837Z" transform="translate(-421.446 -1600.159)" fill="#445a64"/></g><g transform="translate(37.416 3.594)"><path d="M445.684,1595.3c-2.026,1.168-3.673,4.3-3.673,6.988,0,3.863,2.409,3.132,2.409,4.69a.435.435,0,0,0,.37.474,2.209,2.209,0,0,0,1.791-1.027,1.631,1.631,0,0,0,.353-.9h0c0-1.56,2.407-3.585,2.407-7.456C449.359,1595.376,447.712,1594.138,445.684,1595.3Zm2.116,5.164a1.673,1.673,0,0,1-.847.818c-.077.3-.155.656-.225,1.052a21.35,21.35,0,0,0-.3,3.462.351.351,0,0,1-.148.291h0c-.081.049-.148,0-.151-.109a21.652,21.652,0,0,1,.327-3.555c.064-.387.141-.745.222-1.054a1.182,1.182,0,0,1-.387-.027,1.327,1.327,0,0,1-.593-.324,6.562,6.562,0,0,1-.592,1,4.417,4.417,0,0,1-.388.474,6.271,6.271,0,0,1,.223.813,16.542,16.542,0,0,1,.313,3.213.348.348,0,0,1-.156.285c-.084.046-.151,0-.147-.119a16.465,16.465,0,0,0-.3-3.11,5.311,5.311,0,0,0-.229-.81c-.37.284-.67.309-.843.157a.7.7,0,0,1-.066-.793.763.763,0,0,1,.411-.467c.24-.073.473.116.674.534a3.755,3.755,0,0,0,.352-.425,6.12,6.12,0,0,0,.564-.973,1.38,1.38,0,0,1-.222-1,.941.941,0,0,1,.408-.636c.2-.116.353-.052.41.165a2.537,2.537,0,0,1-.222,1.26,1.168,1.168,0,0,0,.563.319.958.958,0,0,0,.353.021,2.952,2.952,0,0,1,.673-1.306c.159-.13.307-.135.413,0a.881.881,0,0,1-.078.842Z" transform="translate(-438.281 -1589.483)" fill="#e0e0e0"/><path d="M446.175,1602.157v1.239a1.671,1.671,0,0,1-.384.931,2.3,2.3,0,0,1-1.849,1.052.449.449,0,0,1-.379-.51l0-.013v-1.105a.443.443,0,0,0,.376.387,2.34,2.34,0,0,0,1.849-1.054A1.656,1.656,0,0,0,446.175,1602.157Z" transform="translate(-437.463 -1585.624)" fill="#e0e0e0"/><path d="M446.519,1602.364a1.649,1.649,0,0,1-.385.927,2.706,2.706,0,0,1-1.537,1.052l-.7-.4v1.133a.478.478,0,0,0,.2.46l1.3.745a.474.474,0,0,0,.162.057,2.33,2.33,0,0,0,1.844-1.053,1.65,1.65,0,0,0,.384-.93v-1.24Z" transform="translate(-437.289 -1585.515)" fill="#36474f"/><path d="M444.112,1604.987l1.3.745a.435.435,0,0,0,.162.057,1.009,1.009,0,0,0,.165,0l-.546-.534v-1.116l-.6-.352h0l-.7-.4v1.147A.48.48,0,0,0,444.112,1604.987Z" transform="translate(-437.288 -1584.971)" fill="#445a64"/><path d="M448.427,1595.32a2.331,2.331,0,0,0-2.405.19c-2.026,1.167-3.67,4.3-3.67,6.99,0,3.862,2.405,3.132,2.405,4.69a.453.453,0,0,0,.208.415l1.283.737a.5.5,0,0,0,.162.06,2.221,2.221,0,0,0,1.8-1.029,1.632,1.632,0,0,0,.37-.9c0-1.558,2.4-3.583,2.4-7.457a3.23,3.23,0,0,0-1.269-2.954Z" transform="translate(-438.101 -1589.375)" fill="#445a64"/><path d="M446.917,1598.935a2.252,2.252,0,0,0-.419.849,1.14,1.14,0,0,0,.486-.494c.028-.057.116-.254.043-.352a.067.067,0,0,0-.093-.018Z" transform="translate(-435.907 -1587.344)" fill="#f1b528"/><path d="M445.616,1598.657a.228.228,0,0,0-.116.174.923.923,0,0,0,.116.594,1.6,1.6,0,0,0,.116-.727C445.719,1598.642,445.694,1598.625,445.616,1598.657Z" transform="translate(-436.44 -1587.484)" fill="#f1b528"/><path d="M444.42,1600.306H444.4a.233.233,0,0,0-.084.127.239.239,0,0,0,.041.3c.1.081.269.077.483-.067C444.677,1600.373,444.523,1600.276,444.42,1600.306Z" transform="translate(-437.08 -1586.606)" fill="#f1b528"/><path d="M446.862,1595.992c-2.028,1.169-3.67,4.3-3.67,6.989,0,3.861,2.4,3.132,2.4,4.69a.436.436,0,0,0,.352.474,2.218,2.218,0,0,0,1.8-1.029,1.621,1.621,0,0,0,.37-.9h0c0-1.558,2.4-3.583,2.4-7.456C450.535,1596.065,448.893,1594.825,446.862,1595.992Zm2.115,5.163a1.681,1.681,0,0,1-.846.818c-.081.3-.159.657-.226,1.053a20.865,20.865,0,0,0-.3,3.461.377.377,0,0,1-.151.292h0c-.086.049-.153,0-.153-.109a21.653,21.653,0,0,1,.31-3.571c.067-.386.142-.748.226-1.054a1.11,1.11,0,0,1-.388-.028,1.339,1.339,0,0,1-.595-.323,6.522,6.522,0,0,1-.593,1,3.721,3.721,0,0,1-.387.474,5.99,5.99,0,0,1,.225.815,16.263,16.263,0,0,1,.311,3.208.369.369,0,0,1-.151.288c-.084.046-.151,0-.151-.119a16.222,16.222,0,0,0-.3-3.11,5.548,5.548,0,0,0-.226-.811c-.37.284-.67.306-.846.158a.7.7,0,0,1-.064-.792.76.76,0,0,1,.413-.468c.24-.074.473.116.67.534a3.491,3.491,0,0,0,.353-.425,6.143,6.143,0,0,0,.567-.971,1.355,1.355,0,0,1-.222-1,.915.915,0,0,1,.405-.634c.2-.116.352-.053.408.164a2.442,2.442,0,0,1-.222,1.261,1.177,1.177,0,0,0,.567.318.911.911,0,0,0,.353.021,2.912,2.912,0,0,1,.691-1.309c.157-.13.309-.133.411,0a.879.879,0,0,1-.06.859Z" transform="translate(-437.656 -1589.119)" fill="#f1b528"/><path d="M447.352,1602.846v1.239a1.667,1.667,0,0,1-.384.93,2.289,2.289,0,0,1-1.844,1.054.456.456,0,0,1-.381-.521v-1.118a.451.451,0,0,0,.381.4,2.331,2.331,0,0,0,1.844-1.053A1.646,1.646,0,0,0,447.352,1602.846Z" transform="translate(-436.839 -1585.259)" fill="#f1b528"/><path d="M446.235,1606.688l-1.269-.726a.453.453,0,0,1-.208-.415c0-1.558-2.405-.818-2.405-4.69a8.415,8.415,0,0,1,.483-2.685c.445.255,1.018.59,1.283.737a8.4,8.4,0,0,0-.482,2.7c0,3.861,2.4,3.132,2.4,4.69A.45.45,0,0,0,446.235,1606.688Z" transform="translate(-438.101 -1587.733)" fill="#36474f"/><path d="M445.062,1603.808a.489.489,0,0,1-.162-.059A.571.571,0,0,0,445.062,1603.808Z" transform="translate(-436.753 -1584.782)" fill="#36474f"/><path d="M444.986,1595.171c-.173.1-.314,0-.314-.236v-2.4a.743.743,0,0,1,.314-.6c.173-.1.313,0,.313.236v2.393A.743.743,0,0,1,444.986,1595.171Z" transform="translate(-436.873 -1591.05)" fill="#f0f0f0"/><path d="M443.492,1596.554c-.151.2-.353.241-.427.095l-.9-1.555a.655.655,0,0,1,.113-.631c.151-.2.353-.243.431-.095l.9,1.555A.651.651,0,0,1,443.492,1596.554Z" transform="translate(-438.221 -1589.794)" fill="#f0f0f0"/><path d="M442.4,1598.634c-.084.25-.275.424-.427.4l-1.558-.3c-.151-.029-.2-.252-.116-.5s.278-.425.427-.4l1.561.3C442.446,1598.16,442.486,1598.385,442.4,1598.634Z" transform="translate(-439.21 -1587.913)" fill="#f0f0f0"/><path d="M442,1601.2a.751.751,0,0,1-.31.6l-1.8,1.052c-.173.1-.311,0-.311-.235a.736.736,0,0,1,.311-.6l1.8-1.054C441.86,1600.871,442,1600.977,442,1601.2Z" transform="translate(-439.572 -1586.272)" fill="#f0f0f0"/><path d="M442.4,1603.324a.65.65,0,0,1-.113.633l-1.561,2.106c-.148.2-.353.242-.427.095a.651.651,0,0,1,.116-.631l1.558-2.108C442.12,1603.216,442.311,1603.174,442.4,1603.324Z" transform="translate(-439.209 -1585.054)" fill="#f0f0f0"/><path d="M448.112,1599.731c.087-.249.278-.43.427-.4l1.561.3c.148.029.2.254.113.5s-.275.428-.427.4l-1.558-.3C448.077,1600.2,448.027,1599.975,448.112,1599.731Z" transform="translate(-435.075 -1587.122)" fill="#f0f0f0"/><path d="M448.605,1597.42a.742.742,0,0,1,.313-.6l1.8-1.054c.173-.1.313,0,.313.235a.753.753,0,0,1-.313.6l-1.8,1.035C448.732,1597.754,448.605,1597.648,448.605,1597.42Z" transform="translate(-434.792 -1589.024)" fill="#f0f0f0"/><path d="M448.11,1595.665a.655.655,0,0,1,.116-.633l1.558-2.106c.151-.2.352-.246.427-.095a.648.648,0,0,1-.113.632l-1.561,2.107C448.389,1595.78,448.2,1595.815,448.11,1595.665Z" transform="translate(-435.073 -1590.607)" fill="#f0f0f0"/><path d="M446.791,1594.838c-.151-.03-.2-.253-.116-.5l.9-2.592c.084-.249.274-.424.427-.4s.2.252.112.5l-.9,2.59C447.131,1594.687,446.94,1594.865,446.791,1594.838Z" transform="translate(-435.835 -1591.345)" fill="#f0f0f0"/><g transform="translate(5.531 93.533)"><path d="M445.579,1660.01a.73.73,0,0,1,.832-.035,1.019,1.019,0,0,1,.352.878,2.676,2.676,0,0,1-.352,1.271,2.242,2.242,0,0,1-.818.919.709.709,0,0,1-.818.021,1.055,1.055,0,0,1-.353-.881,2.7,2.7,0,0,1,.353-1.265A2.147,2.147,0,0,1,445.579,1660.01Z" transform="translate(-442.539 -1648.621)" fill="#e0e0e0"/><path d="M444.952,1657.75l-1.763,1a6.746,6.746,0,0,1,.882-3.325,6.21,6.21,0,0,1,2.355-2.457,2.67,2.67,0,0,1,1.6-.459,1.4,1.4,0,0,1,1.057.719,2.985,2.985,0,0,1,.4,1.6,5.2,5.2,0,0,1-.127,1.1,8.025,8.025,0,0,1-.4,1.268,14.827,14.827,0,0,1-.769,1.488,14.746,14.746,0,0,0-.725,1.405,4.9,4.9,0,0,0-.248.908,9.608,9.608,0,0,0-.127,1.4l-1.809,1.053v-.4a8.629,8.629,0,0,1,.329-2.346,10.742,10.742,0,0,1,1.057-2.428,14.94,14.94,0,0,0,.853-1.625,2.267,2.267,0,0,0,.148-.812.773.773,0,0,0-.352-.757.99.99,0,0,0-.956.157,2.692,2.692,0,0,0-1.008,1.054A3.016,3.016,0,0,0,444.952,1657.75Z" transform="translate(-443.189 -1652.511)" fill="#e0e0e0"/><path d="M446.933,1660.682a.733.733,0,0,1,.832-.035,1.01,1.01,0,0,1,.353.875,2.721,2.721,0,0,1-.353,1.274,2.222,2.222,0,0,1-.821.921.708.708,0,0,1-.818.02,1.05,1.05,0,0,1-.353-.881,2.7,2.7,0,0,1,.332-1.263A2.189,2.189,0,0,1,446.933,1660.682Z" transform="translate(-441.824 -1648.265)" fill="#f1b528"/><path d="M446.641,1663.7h0l-1.291-.74-.07-.046a1.051,1.051,0,0,1-.353-.884,2.708,2.708,0,0,1,.353-1.265l.046-.087,1.294.743-.049.089a2.685,2.685,0,0,0-.332,1.263,1.051,1.051,0,0,0,.335.881Z" transform="translate(-442.272 -1648.187)" fill="#445a64"/><path d="M448.013,1660.87a.751.751,0,0,0-.78.067,2.094,2.094,0,0,0-.759.821l-1.294-.745a2.175,2.175,0,0,1,.7-.786l.053-.031a1.062,1.062,0,0,1,.352-.138.607.607,0,0,1,.427.067l.086.049,1.2.7Z" transform="translate(-442.135 -1648.523)" fill="#36474f"/><path d="M446.3,1658.423l-1.762,1a6.7,6.7,0,0,1,.881-3.324,6.209,6.209,0,0,1,2.355-2.457,2.665,2.665,0,0,1,1.6-.46,1.414,1.414,0,0,1,1.058.72,2.981,2.981,0,0,1,.4,1.6,5.109,5.109,0,0,1-.127,1.1,8.173,8.173,0,0,1-.4,1.268,15.421,15.421,0,0,1-.765,1.488,14.746,14.746,0,0,0-.729,1.4,5.209,5.209,0,0,0-.248.91,9.58,9.58,0,0,0-.127,1.4l-1.807,1.054v-.393a8.569,8.569,0,0,1,.327-2.346,10.755,10.755,0,0,1,1.058-2.433,14.137,14.137,0,0,0,.853-1.621,2.3,2.3,0,0,0,.147-.812.781.781,0,0,0-.352-.757,1,1,0,0,0-.959.158,2.7,2.7,0,0,0-1.009,1.053A3.038,3.038,0,0,0,446.3,1658.423Z" transform="translate(-442.476 -1652.156)" fill="#f1b528"/><path d="M450.052,1653.594a1.317,1.317,0,0,0-.5-.162,2.672,2.672,0,0,0-1.6.461,6.218,6.218,0,0,0-2.355,2.457l-.073.133-1.3-.729c.021-.046.046-.092.072-.138a6.222,6.222,0,0,1,2.355-2.457,2.7,2.7,0,0,1,1.6-.459,1.4,1.4,0,0,1,.518.172Z" transform="translate(-442.641 -1652.412)" fill="#445a64"/><path d="M448.469,1656.325c-.148.3-.391.748-.729,1.338a10.708,10.708,0,0,0-1.058,2.433,8.786,8.786,0,0,0-.329,2.333h0v.393l-.408-.234-.881-.506v-.4a8.566,8.566,0,0,1,.327-2.346,10.748,10.748,0,0,1,1.058-2.429c.352-.59.581-1.036.726-1.338Z" transform="translate(-442.197 -1650.89)" fill="#445a64"/><path d="M445.8,1655.435a6.7,6.7,0,0,0-.807,3.191l-1.291-.742a6.627,6.627,0,0,1,.807-3.19Z" transform="translate(-442.918 -1651.355)" fill="#36474f"/><path d="M448.009,1655.632a2.213,2.213,0,0,1-.148.807,2.154,2.154,0,0,1-.122.288l-1.294-.74c.056-.119.1-.214.127-.288a2.288,2.288,0,0,0,.141-.677.99.99,0,0,1,.94-.149A.781.781,0,0,1,448.009,1655.632Z" transform="translate(-441.466 -1651.292)" fill="#36474f"/></g></g><g transform="translate(55.501)"><g transform="translate(0 0.779)"><path d="M451.445,1664.921a5.84,5.84,0,0,0,1.318,1.286,12.056,12.056,0,0,0,1.65,1.011,19,19,0,0,0,3.47,1.471,7.916,7.916,0,0,0,3.776.244,3.976,3.976,0,0,0,1.671-.765,2.559,2.559,0,0,0,.9-1.65,8.072,8.072,0,0,1,.31-1.882,2.261,2.261,0,0,1,.976-1.052,4.088,4.088,0,0,1,3.375-.113c.662.229,1.3.531,1.934.818s1.323.569,2,.818a20.68,20.68,0,0,0,4.34,1.124,7.674,7.674,0,0,0,4-.278,2.912,2.912,0,0,0,1.864-2.653,2.088,2.088,0,0,0-.257-.905.353.353,0,0,0-.353-.218.217.217,0,0,0-.162.261l.008.026a2.457,2.457,0,0,1-1.41,2.717,6.678,6.678,0,0,1-3.731.309,19.559,19.559,0,0,1-4.081-1.017c-.65-.232-1.284-.489-1.915-.763s-1.231-.554-1.866-.783a5.354,5.354,0,0,0-3.589-.234,3.347,3.347,0,0,0-1.312.818,2.712,2.712,0,0,0-.7,1.548,7.52,7.52,0,0,1-.275,1.815,2.278,2.278,0,0,1-1.159,1.138,5.861,5.861,0,0,1-3.526.294,14.887,14.887,0,0,1-3.355-1.1,12,12,0,0,1-3.248-1.79,6.741,6.741,0,0,1-.61-.586c-.046-.053-.092.055-.063.09Z" transform="translate(-451.398 -1551.049)" fill="#445a64"/><g transform="translate(48.755 53.007)"><path d="M506.343,1663.042a3.993,3.993,0,0,1,.422,2.057,9.59,9.59,0,0,0-.239,2.826c.168,1.4.489,1.843.638,2.837a3.46,3.46,0,0,1-.547,2.632c-.581.942-1.867,1.69-4.405,1.6-2.052-.073-2.878-1.119-2.924-2.32Z" transform="translate(-474.811 -1603.596)" fill="#263238"/><path d="M505.755,1661.193a4.947,4.947,0,0,1,.124.792c.076.474.219.927.33,1.406.031.124.06.246.086.369a13.9,13.9,0,0,1,0,2.864,15.968,15.968,0,0,0,.592,3.339c.462,1.983.537,3.31-1.21,4.687a4.777,4.777,0,0,1-3.092.783,4.9,4.9,0,0,1-2.566-.622c-.748-.548-.737-1.008-.745-1.182-.066-2.107.706-4.564.85-6.67a10.105,10.105,0,0,0,.038-1.706c-.07-.7-.317-1.4-.39-2.105a1.172,1.172,0,0,1,.1-.773,1.242,1.242,0,0,1,.937-.422q1.4-.184,2.792-.28a.859.859,0,0,1,.635.126,1.139,1.139,0,0,1,.232.674c.05.238.226.506.466.463a.4.4,0,0,0,.281-.35c.024-.159.092-1.381.086-1.538C505.315,1661.044,505.646,1660.992,505.755,1661.193Z" transform="translate(-474.82 -1604.657)" fill="#36474f"/><path d="M483.393,1666.5a1.561,1.561,0,0,0,0,1.157c.148.352,1.882,1.405,4.283,1.352a9.992,9.992,0,0,0,5.042-1.534,5.759,5.759,0,0,1,3.081-.661,4.539,4.539,0,0,0,2.987-.982,2.8,2.8,0,0,0,0-1.595Z" transform="translate(-483.281 -1602.966)" fill="#263238"/><path d="M492.068,1661.239a5.147,5.147,0,0,0-.251.523,4.224,4.224,0,0,1-1.318,1.639,13.519,13.519,0,0,1-2.652,1.425,17.872,17.872,0,0,1-1.8.544,10.218,10.218,0,0,0-1.942.85,1.714,1.714,0,0,0-.107,2.84,8.488,8.488,0,0,0,5.889.645c1.41-.35,3-1.754,4.832-1.818,1.164-.046,3.367-.28,4.15-1.127a4.428,4.428,0,0,0-.286-2.7,8.861,8.861,0,0,1-.219-1.85c0-.33.219-1.267-.472-1.383l-.07.7s-.13.239-.846.35c-.232.04-.416.351-.543.622-.095.214-.2.484-.434.48a.434.434,0,0,1-.352-.28,3.234,3.234,0,0,1-.135-.46,1.8,1.8,0,0,0-1.086-1.054,5.411,5.411,0,0,0-1.277-.266c-.327-.049-.6-.194-.891.087A1.015,1.015,0,0,0,492.068,1661.239Z" transform="translate(-483.277 -1604.768)" fill="#36474f"/><path d="M507.759,1626.6c.889,8.632,1.24,12.735,2.379,29.958a49.42,49.42,0,0,1,1.734,9.9c.248,4.181.843,16.78.843,16.78s-3.384,2.767-7.3,1.489c0,0-3.543-18.514-4.78-24.292-1.185-5.547-2.387-12.515-2.387-12.515l-.557,8.64s.159,3.439.049,8.575c-.06,2.748-1.389,17.619-1.389,17.619s-4.75,2.147-7.953-.612c0,0-.234-24.114-.28-26.6-.055-2.834.434-31.376.434-31.376Z" transform="translate(-480.726 -1624.168)" fill="#f1b528"/><path d="M507.759,1626.6c.889,8.632,1.24,12.735,2.379,29.958a49.42,49.42,0,0,1,1.734,9.9c.248,4.181.843,16.78.843,16.78s-3.384,2.767-7.3,1.489c0,0-3.543-18.514-4.78-24.292-1.185-5.547-2.387-12.515-2.387-12.515l-.557,8.64s.159,3.439.049,8.575c-.06,2.748-1.389,17.619-1.389,17.619s-4.75,2.147-7.953-.612c0,0-.234-24.114-.28-26.6-.055-2.834.434-31.376.434-31.376Z" transform="translate(-480.726 -1624.168)" opacity="0.15" style="isolation:isolate"/><path d="M497.484,1644.6l-2.115-11.756s-3.751-.328-5.825-2.409c0,0,.37,2.043,5.085,3.268l1.915,9.808.4,9.729Z" transform="translate(-479.967 -1620.85)" opacity="0.25" style="isolation:isolate"/><path d="M505.931,1661.558a7.731,7.731,0,0,1-5.207,1.867,9.785,9.785,0,0,0,5.172-2.606Z" transform="translate(-474.051 -1604.773)" opacity="0.25" style="isolation:isolate"/><path d="M495.707,1661.334a11.216,11.216,0,0,1-6.1.274s2.153,1.442,6.052.256Z" transform="translate(-479.933 -1604.5)" opacity="0.25" style="isolation:isolate"/></g><g transform="translate(32.438 28.897)"><path d="M496.188,1610.8c-1.41,1.967-5.6,9.788-6.7,12.1l-7.351-5.851c-.607-.769-.6-2.378-1.642-3.9-1.15-1.685-.685-3.341-1.509-3.116a1.184,1.184,0,0,0-.7,1.2c0,.972.465,2.194.081,2.106-.575-.2-1-.853-1.763-1.826-.318-.4-1.058-2.014-1.471-2.731a.635.635,0,0,0-1.127-.074c-.105.225-.18.737-.283.951a2.118,2.118,0,0,1-.437.439,2.177,2.177,0,0,0-.454.425c-.318.488-.021,1.024-.141,1.548a4.492,4.492,0,0,0,.63,3.1c.234.425.459.862.707,1.271a9.231,9.231,0,0,0,2.04,2.211c.706.579,1.531.9,2.2,1.513s2.6,2.844,4.055,4.424a65.378,65.378,0,0,0,5.288,5.522c1.879,1.214,3.613,1.4,5.673-.994,2.468-2.878,7.076-10.215,7.076-10.215l.986-10.109S497.832,1608.44,496.188,1610.8Z" transform="translate(-472.611 -1608.402)" fill="#9d6767"/><path d="M495.767,1608.691a5.558,5.558,0,0,0-5.391,1.635c-1.364,1.555-5.109,9.128-5.669,9.829s-1.058.962-1.125,1.545a.931.931,0,0,0,.261.829c1.023.157,4.251,5.357,3.065,7.12l-.551.477a1.086,1.086,0,0,0,1.382,0c.743-.569,1.624-2.24,2.636-3.687s5.391-7.4,5.391-7.4Z" transform="translate(-466.813 -1608.304)" fill="#263238"/><path d="M483.885,1617.685l-.395.095a8.539,8.539,0,0,1,1.763,4.4c.214,1.607-.029,3.465-.5,3.9,0,0,.479.179,1.268-.373a9.861,9.861,0,0,0,1.217-.976,5.487,5.487,0,0,0-.427-3.861C485.778,1618.713,484.692,1617.93,483.885,1617.685Z" transform="translate(-466.854 -1603.489)" fill="#36474f"/></g><g transform="translate(27.106)"><path d="M481.76,1652.627l-8,16.24a.551.551,0,0,1-1.037-.133l-3.6-17.841Z" transform="translate(-469.124 -1557.019)" fill="#f5a7a7"/><path d="M471.742,1663.877a.551.551,0,0,0,1.037.133l1.564-3.159h0a3.072,3.072,0,0,1-3.138-.572l-.232-.208Z" transform="translate(-468.146 -1552.162)" fill="#445a64"/><path d="M479,1601.406l-.216,1.661-.268,2-9.389,72.009a8.069,8.069,0,0,0,5.01,3.159c3.019.7,6.283.1,7.615-1.431l9.365-71.965.5-3.83C491.152,1605.478,478.551,1603.882,479,1601.406Z" transform="translate(-469.124 -1583.207)" fill="#f1b528"/><path d="M479,1601.406l-.216,1.661-.268,2-9.389,72.009a8.069,8.069,0,0,0,5.01,3.159c3.019.7,6.283.1,7.615-1.431l9.365-71.965.5-3.83C491.152,1605.478,478.551,1603.882,479,1601.406Z" transform="translate(-469.124 -1583.207)" fill="#fff" opacity="0.5" style="isolation:isolate"/><path d="M475.187,1605.539l-.476,3.71c-.173,1.071,2.038,2.054,4.661,2.633,3.487.776,7.756.35,7.993-1.053l.352-2.731.11-.979c-.234,1.4-4.507,1.846-7.993,1.07-2.514-.558-4.658-1.5-4.658-2.514h0A.182.182,0,0,1,475.187,1605.539Z" transform="translate(-466.172 -1581.02)" fill="#ebebeb"/><path d="M474.949,1607.429c-.407,2.485,12.237,4.047,12.645,1.561l.488-3.71c-.407,2.485-13.045.922-12.643-1.563Z" transform="translate(-466.046 -1581.983)" fill="#f1b528"/><path d="M475.751,1601.406l-.483,3.665c-.421,2.436,11.769,4.048,12.617,1.777a.7.7,0,0,0,.04-.137l.457-3.693C487.906,1605.478,475.306,1603.882,475.751,1601.406Z" transform="translate(-465.879 -1583.207)" fill="#ebebeb"/><path d="M489.513,1606.291l.5-3.831c-.208,1.113-2.895,1.622-5.768,1.362l-9.9,76.155-2.193,14.519,8-16.24h0Z" transform="translate(-467.521 -1582.649)" opacity="0.1" style="isolation:isolate"/><path d="M490.267,1593.453c0-.041.025-.079.029-.122.2-1.612-2.468-3.276-5.949-3.715s-6.476.506-6.7,2.107h0l-2.066,15.979c-.18,1.053,2,2.047,4.6,2.636,3.479.787,7.756.384,8.027-1.025h0l2.038-15.6a.733.733,0,0,1,.021-.214Z" transform="translate(-465.711 -1589.502)" fill="#f18f8f"/><path d="M482.726,1589.655l-2.664,20.947c2.847.232,5.563-.252,5.767-1.365h0l2.038-15.6a.734.734,0,0,1,.021-.214v-.046c0-.041.025-.079.028-.122C488.11,1591.758,485.833,1590.224,482.726,1589.655Z" transform="translate(-463.336 -1589.425)" opacity="0.1" style="isolation:isolate"/><path d="M489.581,1593.333c-.2,1.612-3.2,2.56-6.7,2.105s-6.152-2.105-5.947-3.713,3.2-2.563,6.7-2.107S489.785,1591.721,489.581,1593.333Z" transform="translate(-464.996 -1589.505)" fill="#f5a7a7"/></g><g transform="translate(56.002 28.826)"><path d="M508.107,1627.448a5.134,5.134,0,0,1-.055,1.959c-.259.4-5.06,1.668-11.3,1.054s-8.129-2.244-8.348-2.609a3.7,3.7,0,0,1,0-2.122Z" transform="translate(-487.898 -1599.161)" fill="#263238"/><path d="M488.359,1616.559c.352-5.733,2.858-7.814,5.429-7.755l6.744-.45c1.442.373,5.948,1.45,7.912,2.037s1.982,4.97,1.526,7.874-1.41,5.11-1.688,9.993c.078,4.624,1.259,7.06.113,8.285-4.2,2.65-15.53,1.772-19.962-.884-.937-.46.027-3.974-.064-6.817C488.214,1623.964,488.252,1618.41,488.359,1616.559Z" transform="translate(-488.02 -1608.355)" fill="#36474f"/><path d="M501.87,1609.723c2.369.249,2.9.674,3.6,1.755a27.188,27.188,0,0,1,2.271,7.724c-1.388,3.924-7,2.106-7,2.106Z" transform="translate(-481.29 -1607.632)" fill="#263238"/><path d="M493.43,1608.553s-2.317,2.106-1.544,4.048,4.118,2.3,6.73.442,2.384-4.031,2.384-4.031l-.983-.3a3.238,3.238,0,0,1-.54,1.327c-.413.491-5.617,2.566-5.722,3.159a11.66,11.66,0,0,1-.705-2.072,7.089,7.089,0,0,1,.353-2.165Z" transform="translate(-486.058 -1608.25)" fill="#fafafa"/></g><g transform="translate(58.25 9.436)"><path d="M489.789,1601.8a2.985,2.985,0,0,0,.885,2.674,32.589,32.589,0,0,0,4.653,3.742,18.988,18.988,0,0,0,2.641,1.43,10.582,10.582,0,0,0,2.895.677l-.275,2.488s.33-.642.778-1.4c.388-.659,2.038-4.033,2.038-4.033a10.291,10.291,0,0,0,1.456-4.213,2.763,2.763,0,0,0-1.332-2.517c.038-2.081-1.785-3.76-3.448-4.375a9.793,9.793,0,0,0-4.5-.529,7.156,7.156,0,0,0-4.1,1.835A5.624,5.624,0,0,0,489.789,1601.8Z" transform="translate(-489.34 -1595.675)" fill="#263238"/><path d="M499.494,1599.926a4.949,4.949,0,0,0,1.442,2.809,9.019,9.019,0,0,0-.243,3.022,1.635,1.635,0,0,0,.194.618.739.739,0,0,0,.517.352c.291.038.421-.133.526-.352a7.3,7.3,0,0,1,.494-.824,1.7,1.7,0,0,1,.278-.313,1.444,1.444,0,0,1,2.352.625,3.058,3.058,0,0,1-1.806,3.571c-1.864.407-2.193-.856-2.193-.856l-.705,6.493c-1.058.98-4.231,2.422-5.4,3.589-.44-.864-1.477-2.457-.352-4.237l.032-2.142a15.357,15.357,0,0,1-2.951-.312c-.942-.239-1.569-1.138-1.915-2.6-.67-2.843.032-6.649.479-8.354a5.579,5.579,0,0,1,1.555-2.72.331.331,0,0,1,.468.02.34.34,0,0,1,.047.064,2.919,2.919,0,0,0,1.945,1.281,11.747,11.747,0,0,0,4.415-.292.671.671,0,0,1,.806.5C499.486,1599.885,499.491,1599.9,499.494,1599.926Z" transform="translate(-489.49 -1594.335)" fill="#9d6767"/><path d="M492.845,1608.1a10.27,10.27,0,0,0,3.907-.671,3.6,3.6,0,0,0,1.566-1.288,3.067,3.067,0,0,1-1.08,1.506c-1.078.943-4.4,1.052-4.4,1.052Z" transform="translate(-487.718 -1590.138)" fill="#864c4c"/><path d="M493.98,1602.761a.585.585,0,1,0,.638-.55.591.591,0,0,0-.638.541Z" transform="translate(-487.115 -1592.218)" fill="#263238"/><path d="M494.432,1601.089a3.839,3.839,0,0,1,1.48,1.054.952.952,0,0,0-.214-1.306.89.89,0,0,0-1.239.211Z" transform="translate(-486.875 -1593.03)" fill="#263238"/><path d="M494.463,1604.9l-2.115.445a1.057,1.057,0,0,0,1.205.882l.06-.012A1.13,1.13,0,0,0,494.463,1604.9Z" transform="translate(-487.978 -1590.792)" fill="#864c4c"/><path d="M493.91,1605.206a.976.976,0,0,0-.965.862.962.962,0,0,0,.352,0,1.114,1.114,0,0,0,.837-.81A1.027,1.027,0,0,0,493.91,1605.206Z" transform="translate(-487.662 -1590.631)" fill="#f18f8f"/><path d="M490.741,1601.056a2.644,2.644,0,0,1,1.48.99.854.854,0,0,0-.214-1.193l-.021-.015A.913.913,0,0,0,490.741,1601.056Z" transform="translate(-488.828 -1593.025)" fill="#263238"/><path d="M490.616,1602.321a.589.589,0,1,0,.642-.558.6.6,0,0,0-.642.552Z" transform="translate(-488.895 -1592.455)" fill="#263238"/><path d="M493.728,1601.657l-.5,4.248-2.119-.976Z" transform="translate(-488.632 -1592.51)" fill="#864c4c"/><path d="M493.053,1613.788c.772-.407,1.636-1.552,2.306-.577s1.135,2.107,1.685,1.967a8.579,8.579,0,0,0,3.205-3.078,6.454,6.454,0,0,0,.687-2.457s-.589-.748-1.078-1.33c-.547-.642-.632-.812-1.1-.875l-.176,1.6a2.43,2.43,0,0,1-1.1,1.538C496.11,1611.428,494.146,1611.756,493.053,1613.788Z" transform="translate(-487.605 -1589.451)" fill="#ebebeb"/><path d="M494.415,1613.485c-.416-.433-1.667-1.723-2.4-1.563s-1.534,1.531-1.531,1.146a11.942,11.942,0,0,1,1.466-3.468,4.615,4.615,0,0,1,2.116-1.59v1.239a6.978,6.978,0,0,0-.381,1.756C493.693,1612.038,494.363,1612.846,494.415,1613.485Z" transform="translate(-488.966 -1589.148)" fill="#ebebeb"/></g><g transform="translate(67.598 17.986)"><path d="M504.09,1611.991a8.732,8.732,0,0,1-.991-3.285,9.119,9.119,0,0,0-1.121-3.234c-.251-.543-.864-1.4-1.3-2.173s-.567-1-1.353-1.285a7.626,7.626,0,0,0-2.387-.677c-.462.054-.5.352-.194.794a3.385,3.385,0,0,0,1.326.818c.237.116.734.456.734.456l.751,1.706a15.442,15.442,0,0,0-2.19.12,1.71,1.71,0,0,0-.78,1.468.963.963,0,0,0-.589.993s-.486.436-.3.9a6.87,6.87,0,0,0,.829,1.345,2.883,2.883,0,0,0,1.015.424,7.687,7.687,0,0,0,1.032,1.756c.518.555.921.6,1.41,1.647Z" transform="translate(-495.576 -1601.232)" fill="#9d6767"/><path d="M498.074,1603.98c-.381-.257-.42-.551-.839-.477s-.353.55-.353.55Z" transform="translate(-494.929 -1600.09)" fill="#864c4c"/><path d="M496.259,1605.074a4.023,4.023,0,0,1,.951-.39c.315-.087.953-.185.953-.185a4.362,4.362,0,0,0-1.269.063,3.424,3.424,0,0,0-.629.179,1.172,1.172,0,0,0,0,.292Z" transform="translate(-495.258 -1599.567)" fill="#864c4c"/><path d="M496.3,1605.265a2.964,2.964,0,0,0-.44.13,1.157,1.157,0,0,0,0,.291,3.574,3.574,0,0,1,1.228-.477A3.707,3.707,0,0,0,496.3,1605.265Z" transform="translate(-495.47 -1599.182)" fill="#864c4c"/><path d="M497.46,1608.041a8.319,8.319,0,0,0-.6-1.528.64.64,0,0,0-.84-.239c-.141.149.431.228.583.334A5.533,5.533,0,0,1,497.46,1608.041Z" transform="translate(-495.394 -1598.654)" fill="#864c4c"/><path d="M499.7,1604.952s-.237-.509-.677-1.331-.424-.7-.962-.928-1.555-.592-1.782-.979a1.414,1.414,0,0,0,.124.214,3.325,3.325,0,0,0,1.326.818c.236.116.732.456.732.456l.772,1.755Z" transform="translate(-495.247 -1601.03)" fill="#864c4c"/><path d="M502.588,1608.3c1.456,2.595,5.493,8.935,6.257,11.3.515,1.642.089,5.153-.97,6.242s-3.314.144-4.91-1.878c-1.379-1.756-2.117-5.459-2.821-8.141s-1.65-5.733-1.65-5.733Z" transform="translate(-494.074 -1597.544)" fill="#9d6767"/><path d="M504.117,1612.026a11.9,11.9,0,0,1-.8-2.014,6.5,6.5,0,0,1-.2-1.054,5.352,5.352,0,0,0-.165-1.053,9.825,9.825,0,0,0-.81-2,15.568,15.568,0,0,0-1.09-1.872c-.193-.3-.376-.624-.554-.937a1.818,1.818,0,0,0-.705-.768,9.107,9.107,0,0,0-1-.4c-.353-.122-.685-.249-1.031-.35a1.522,1.522,0,0,0-1.015-.057c-.144.07-.13.25-.057.4a1.254,1.254,0,0,0,.3.417,3.41,3.41,0,0,0,.928.517,5.856,5.856,0,0,1,.948.554h0l.743,1.707.035.08h-.087a19.136,19.136,0,0,0-1.96.074c-.335,0-.543.277-.7.548a1.677,1.677,0,0,0-.254.905v.032h-.029a1.176,1.176,0,0,0-.454.379.759.759,0,0,0-.113.561v.024h-.017a.855.855,0,0,0-.314.78,4,4,0,0,0,.419.807c.081.13.17.26.257.383a.909.909,0,0,0,.3.327,3.652,3.652,0,0,0,.861.312h0v.017a10.591,10.591,0,0,0,.465.953,4.25,4.25,0,0,0,.6.863c.24.26.54.457.778.72a3.22,3.22,0,0,1,.564.895,3.4,3.4,0,0,0-.573-.884c-.245-.257-.547-.447-.794-.7a4.2,4.2,0,0,1-.621-.864,10.235,10.235,0,0,1-.479-.951l.02.022a4.049,4.049,0,0,1-.881-.317,1.1,1.1,0,0,1-.321-.351c-.092-.126-.179-.256-.26-.385a3.841,3.841,0,0,1-.434-.829.948.948,0,0,1,.332-.867v.042a.836.836,0,0,1,.122-.628,1.277,1.277,0,0,1,.491-.414l-.029.049a1.774,1.774,0,0,1,.258-.965,1.851,1.851,0,0,1,.306-.4.674.674,0,0,1,.219-.147,1.3,1.3,0,0,1,.254-.057c.659-.073,1.32-.073,1.979-.084l-.054.081-.754-1.7.021.029a5.729,5.729,0,0,0-.928-.541,3.436,3.436,0,0,1-.962-.544,1.427,1.427,0,0,1-.329-.46.654.654,0,0,1-.063-.291.322.322,0,0,1,.173-.263.906.906,0,0,1,.567-.07,3.459,3.459,0,0,1,.554.165c.352.105.705.231,1.032.35a9.027,9.027,0,0,1,1.015.412,1.913,1.913,0,0,1,.742.81c.179.316.352.628.546.937a15.145,15.145,0,0,1,1.086,1.883,9.968,9.968,0,0,1,.8,2.018,5.338,5.338,0,0,1,.153,1.077,6.289,6.289,0,0,0,.182,1.053A11.783,11.783,0,0,0,504.117,1612.026Z" transform="translate(-495.603 -1601.267)" fill="#864c4c"/></g></g><g transform="translate(62.392)"><g transform="translate(9.078)"><g transform="translate(2.546 3.099)"><path d="M501.474,1597.841a.775.775,0,1,1-.385-1.023h0A.772.772,0,0,1,501.474,1597.841Z" transform="translate(-499.7 -1587.991)" fill="#36474f"/><path d="M499.995,1597.361c-.352-.48-.144-.916.445-.973a2.064,2.064,0,0,1,1.691.772c.353.482.141.916-.448.97A2.05,2.05,0,0,1,499.995,1597.361Z" transform="translate(-499.789 -1588.183)" fill="#445a64"/><path d="M500.053,1597.2c-.353-.494-.148-.943.462-1a2.121,2.121,0,0,1,1.742.793c.352.5.148.945-.462,1A2.118,2.118,0,0,1,500.053,1597.2Z" transform="translate(-499.759 -1588.281)" fill="#36474f"/><path d="M500.115,1597.045a.616.616,0,0,1,.473-1.054,2.2,2.2,0,0,1,1.8.821c.352.509.151.973-.476,1.032A2.2,2.2,0,0,1,500.115,1597.045Z" transform="translate(-499.726 -1588.393)" fill="#445a64"/><path d="M500.181,1596.859c-.376-.527-.158-1,.491-1.053a2.259,2.259,0,0,1,1.85.842c.375.526.156,1-.489,1.054A2.266,2.266,0,0,1,500.181,1596.859Z" transform="translate(-499.697 -1588.492)" fill="#36474f"/><path d="M500.253,1596.679c-.381-.537-.159-1.022.5-1.084a2.3,2.3,0,0,1,1.89.859c.384.538.159,1.026-.5,1.086A2.3,2.3,0,0,1,500.253,1596.679Z" transform="translate(-499.66 -1588.603)" fill="#445a64"/><path d="M505.1,1591.354a3.7,3.7,0,0,0-4.895,1.821v0c-1.216,2.653.778,4.1.289,5.167a.622.622,0,0,0,.119.625,2.011,2.011,0,0,0,1.639.737.639.639,0,0,0,.558-.32h0c.489-1.053,2.895-.506,4.11-3.159a3.668,3.668,0,0,0-1.815-4.873Z" transform="translate(-499.801 -1591.022)" fill="#f1b528"/><g opacity="0.6"><path d="M505.1,1591.354a3.7,3.7,0,0,0-4.895,1.821v0c-1.216,2.653.778,4.1.289,5.167a.622.622,0,0,0,.119.625,2.011,2.011,0,0,0,1.639.737.639.639,0,0,0,.558-.32h0c.489-1.053,2.895-.506,4.11-3.159a3.668,3.668,0,0,0-1.815-4.873Z" transform="translate(-499.801 -1591.022)" fill="#fff"/></g><path d="M500.55,1596.422c-.251-.35-.106-.666.324-.7a1.508,1.508,0,0,1,1.234.561c.251.352.1.668-.327.7A1.5,1.5,0,0,1,500.55,1596.422Z" transform="translate(-499.47 -1588.536)" fill="#f1b528"/><path d="M501.669,1597.719a.125.125,0,0,1-.064-.164,8.739,8.739,0,0,1,1.115-1.8,4.4,4.4,0,0,1,.408-.454,1.683,1.683,0,0,1-.225-.274,2.154,2.154,0,0,1-.275-.578,2.13,2.13,0,0,1-.613.171,1.675,1.675,0,0,1-.353,0,4.75,4.75,0,0,1-.073.607,8.942,8.942,0,0,1-.645,2.016.128.128,0,0,1-.167.06.131.131,0,0,1-.06-.168,8.554,8.554,0,0,0,.624-1.956,4.665,4.665,0,0,0,.075-.6.777.777,0,0,1-.55-.477.4.4,0,0,1,.165-.491.327.327,0,0,1,.37,0,.929.929,0,0,1,.265.748,1.439,1.439,0,0,0,.324,0,2.044,2.044,0,0,0,.593-.173.909.909,0,0,1,.127-.7.353.353,0,0,1,.61.277.916.916,0,0,1-.459.563,1.926,1.926,0,0,0,.257.558,1.473,1.473,0,0,0,.208.245.968.968,0,0,1,.745-.288.329.329,0,0,1,.249.271.4.4,0,0,1-.265.445.8.8,0,0,1-.7-.1,4.129,4.129,0,0,0-.411.453,8.877,8.877,0,0,0-1.08,1.756.127.127,0,0,1-.165.066Zm-.437-3.9a.087.087,0,0,0-.086,0,.161.161,0,0,0-.052.2.511.511,0,0,0,.31.288c-.021-.278-.089-.436-.159-.485Zm2.3,1.464a.522.522,0,0,0,.424.046.15.15,0,0,0,.113-.165c-.021-.1-.04-.073-.064-.081A.713.713,0,0,0,503.533,1595.283Zm-.529-1.656a.076.076,0,0,0-.109.015l0,0a.59.59,0,0,0-.086.411.6.6,0,0,0,.258-.33.08.08,0,0,0-.055-.1Z" transform="translate(-499.323 -1589.784)" fill="#fff"/></g><path d="M503.732,1590.973l-.064-.018a.242.242,0,0,1-.119-.32l.515-1.138a.241.241,0,0,1,.44.2h0l-.518,1.141A.238.238,0,0,1,503.732,1590.973Z" transform="translate(-495.283 -1588.804)" fill="#e0e0e0"/><path d="M501.978,1590.72a.24.24,0,0,1-.2-.214l-.127-1.246a.241.241,0,0,1,.479-.049l.127,1.246a.238.238,0,0,1-.213.263h0A.137.137,0,0,1,501.978,1590.72Z" transform="translate(-496.279 -1588.996)" fill="#e0e0e0"/><path d="M500.5,1591.289a.258.258,0,0,1-.159-.095l-.732-1.018a.234.234,0,0,1,.026-.332l.026-.018a.248.248,0,0,1,.347.043l.006.009.732,1.018a.238.238,0,0,1-.232.375Z" transform="translate(-497.389 -1588.584)" fill="#e0e0e0"/><path d="M499.488,1592.511a.28.28,0,0,1-.064-.022l-1.145-.512a.241.241,0,1,1,.2-.439l1.15.515a.242.242,0,0,1,.106.326A.245.245,0,0,1,499.488,1592.511Z" transform="translate(-498.136 -1587.661)" fill="#e0e0e0"/><path d="M505.082,1597.621a.236.236,0,0,1-.159-.095l-.737-1.018a.24.24,0,0,1,.035-.336l.021-.015a.241.241,0,0,1,.335.054h0l.737,1.017a.24.24,0,0,1-.035.337l-.021.015A.233.233,0,0,1,505.082,1597.621Z" transform="translate(-494.962 -1585.23)" fill="#e0e0e0"/><path d="M506.64,1595.713l-.064-.018-1.145-.515a.235.235,0,0,1-.124-.309l0-.008a.242.242,0,0,1,.317-.124h0l1.145.515a.239.239,0,0,1,.124.315h0A.248.248,0,0,1,506.64,1595.713Z" transform="translate(-494.351 -1585.966)" fill="#e0e0e0"/><path d="M505.78,1593.458a.242.242,0,0,1,0-.477l1.252-.127a.241.241,0,0,1,.265.211v0a.239.239,0,0,1-.213.263h0l-1.251.127A.233.233,0,0,1,505.78,1593.458Z" transform="translate(-494.197 -1586.954)" fill="#e0e0e0"/><path d="M505.137,1591.975a.243.243,0,0,1-.2-.28.24.24,0,0,1,.093-.151l1.023-.734a.239.239,0,0,1,.333.055h0a.237.237,0,0,1-.047.33l-.006,0-1.018.732A.242.242,0,0,1,505.137,1591.975Z" transform="translate(-494.538 -1588.059)" fill="#e0e0e0"/></g><g transform="translate(15.437 15.677)"><path d="M502.875,1601.659a.162.162,0,0,1-.078-.2l.061-.145a.809.809,0,0,0-.353-1.014l-.135-.081a.164.164,0,0,1-.06-.211.161.161,0,0,1,.2-.077l.176.046h0a.819.819,0,0,0,1.015-.352l.081-.133a.16.16,0,0,1,.213-.06h0a.157.157,0,0,1,.076.2l-.06.144a.817.817,0,0,0,.335,1.015l.134.08a.162.162,0,0,1-.145.289l-.144-.06a.82.82,0,0,0-1.02.35l-.081.133a.164.164,0,0,1-.211.061Zm.183-1.289a.418.418,0,1,0,.748.376,1.121,1.121,0,0,1-.183-.558,1.143,1.143,0,0,1-.578.182Z" transform="translate(-502.294 -1599.161)" fill="#f1b528"/><path d="M505.818,1601.2a1.033,1.033,0,1,1,1.392-.457,1.029,1.029,0,0,1-1.392.457Zm.789-1.555a.687.687,0,1,0,.015.007l-.015-.007Z" transform="translate(-500.731 -1599.247)" fill="#f1b528"/><path d="M505.313,1602.71a.155.155,0,0,1-.075-.209l0-.007.243-.477a.159.159,0,0,1,.284.144l-.243.482A.161.161,0,0,1,505.313,1602.71Z" transform="translate(-500.744 -1597.829)" fill="#f1b528"/><path d="M505.2,1602.723l-.483-.243a.16.16,0,0,1,.142-.287l.006,0,.48.243a.16.16,0,0,1,.07.214.161.161,0,0,1-.216.07Z" transform="translate(-501.06 -1597.697)" fill="#f1b528"/><path d="M504.952,1603.417a.163.163,0,0,1-.07-.217l.243-.477a.166.166,0,0,1,.219-.073.164.164,0,0,1,.07.217l-.243.482a.164.164,0,0,1-.219.07Z" transform="translate(-500.934 -1597.455)" fill="#f1b528"/><path d="M505.906,1603.078l-.483-.242a.16.16,0,0,1-.07-.217.163.163,0,0,1,.219-.07l.48.242a.161.161,0,1,1-.145.287Z" transform="translate(-500.685 -1597.51)" fill="#f1b528"/></g><g transform="translate(0 1.251)"><path d="M496.73,1592.162a.158.158,0,0,1-.2-.087l-.064-.144a.827.827,0,0,0-.966-.468l-.151.043a.162.162,0,1,1-.106-.306l.145-.06h0a.818.818,0,0,0,.468-.962l-.041-.15a.162.162,0,1,1,.306-.105h0l.06.144a.824.824,0,0,0,.966.464l.151-.038a.162.162,0,0,1,.206.1.16.16,0,0,1-.1.2l-.144.06a.817.817,0,0,0-.465.962l.038.151A.164.164,0,0,1,496.73,1592.162Zm-.8-1.028a1.142,1.142,0,0,1,.537.26,1.087,1.087,0,0,1,.257-.531.419.419,0,0,0-.794.271Z" transform="translate(-490.647 -1589.813)" fill="#f1b528"/><path d="M496.229,1594.705a1.032,1.032,0,1,1,.642-1.314,1.039,1.039,0,0,1-.642,1.314Zm-.575-1.647a.71.71,0,1,0,.908.437.709.709,0,0,0-.908-.437Z" transform="translate(-490.794 -1588.288)" fill="#f1b528"/><path d="M492.94,1592.23a.164.164,0,0,1-.208-.1v0l-.176-.509a.159.159,0,0,1,.1-.2.165.165,0,0,1,.208.1l.177.509A.163.163,0,0,1,492.94,1592.23Z" transform="translate(-492.015 -1588.969)" fill="#f1b528"/><path d="M492.924,1592.324l-.512.175a.157.157,0,0,1-.2-.094l0,0a.164.164,0,0,1,.1-.207l.512-.176a.161.161,0,0,1,.107.3Z" transform="translate(-492.199 -1588.651)" fill="#f1b528"/><path d="M493.2,1592.978a.162.162,0,0,1-.208-.1v0l-.177-.5a.163.163,0,0,1,.307-.11h0l.176.509a.158.158,0,0,1-.095.2Z" transform="translate(-491.877 -1588.572)" fill="#f1b528"/><path d="M493.675,1592.064l-.511.176a.164.164,0,0,1-.205-.1.167.167,0,0,1,.1-.208l.511-.174a.158.158,0,0,1,.2.095l0,0a.161.161,0,0,1-.1.206Z" transform="translate(-491.801 -1588.789)" fill="#f1b528"/></g></g></g></svg>