<svg xmlns="http://www.w3.org/2000/svg" width="197.648" height="146.638" viewBox="0 0 197.648 146.638"><g transform="translate(0 0)"><rect width="197.648" height="0.098" transform="translate(0 128.864)" fill="#ebebeb"/><rect width="20.978" height="0.098" transform="translate(156.865 135.197)" fill="#ebebeb"/><rect width="23.188" height="0.098" transform="translate(107.742 133.965)" fill="#ebebeb"/><rect width="7.586" height="0.098" transform="translate(150.291 133.398)" fill="#ebebeb"/><rect width="17.073" height="0.098" transform="translate(39.715 132.205)" fill="#ebebeb"/><rect width="6.103" height="0.098" transform="translate(31.41 132.205)" fill="#ebebeb"/><rect width="21.425" height="0.098" transform="translate(51.969 133.866)" fill="#ebebeb"/><path d="M319.449,1700.3H243.125a2.251,2.251,0,0,1-2.257-2.246V1591.223a2.252,2.252,0,0,1,2.257-2.227h76.324a2.252,2.252,0,0,1,2.257,2.246h0v106.816A2.252,2.252,0,0,1,319.449,1700.3Zm-76.324-111.23a2.157,2.157,0,0,0-2.158,2.149v106.835a2.156,2.156,0,0,0,2.158,2.149h76.324a2.157,2.157,0,0,0,2.158-2.149V1591.223a2.158,2.158,0,0,0-2.158-2.149Z" transform="translate(-225.764 -1588.996)" fill="#ebebeb"/><path d="M376.353,1700.3H300.021a2.255,2.255,0,0,1-2.257-2.246V1591.223a2.255,2.255,0,0,1,2.257-2.227h76.332a2.251,2.251,0,0,1,2.25,2.227v106.835A2.25,2.25,0,0,1,376.353,1700.3Zm-76.332-111.23a2.158,2.158,0,0,0-2.158,2.149v106.835a2.157,2.157,0,0,0,2.158,2.149h76.332a2.159,2.159,0,0,0,2.159-2.149V1591.223a2.159,2.159,0,0,0-2.159-2.149Z" transform="translate(-197.162 -1588.996)" fill="#ebebeb"/><path d="M371.959,1660.647c-10.11-13.053-14.791-25.848-27.085-7.018A121.473,121.473,0,0,1,330.94,1636.5c-19.152-29.705-38.406-11.414-54.045,8.761s-33.715,56.565-33.715,56.565H405.952S382.131,1673.778,371.959,1660.647Z" transform="translate(-224.601 -1572.961)" fill="#f5f5f5"/><path d="M317.765,1658.448c-5.237-9.788-7.644-19.392-14.064-4.986-6.1,13.7-21.741,35.676-21.741,35.676h53.3S323,1668.233,317.765,1658.448Z" transform="translate(-205.106 -1560.278)" fill="#f0f0f0"/><path d="M249.615,1599.573a1.754,1.754,0,0,1,1.1.338,16.852,16.852,0,0,1,7.563-1.807,5.767,5.767,0,0,1,2.766.673,16.433,16.433,0,0,1,8.332-3.019c1.387,0,2.269.394,2.6,1.083a20.059,20.059,0,0,1,7.668-1.913c3.582,0,4.815,1.85,3.455,4.448,1.689.044,3.112,1.072,1.9,1.991H245.453c.048-.059.095-.113.15-.173A5.941,5.941,0,0,1,249.615,1599.573Z" transform="translate(-223.459 -1586.014)" fill="#fafafa"/><path d="M276.188,1606.777a.844.844,0,0,1,.628.245,8.78,8.78,0,0,1,4.495-1.315,2.729,2.729,0,0,1,1.581.491h0a9.026,9.026,0,0,1,5-2.2c.792,0,1.309.295,1.471.787a10.358,10.358,0,0,1,4.57-1.395c1.629,0,2.371.816,2.2,2.068a5.374,5.374,0,0,1,2.162-.578c.87,0,1.292.392,1.249,1.058a2.008,2.008,0,0,1,.23,0c1.328.107,1.874.941,1.268,1.893H273.863A3.371,3.371,0,0,1,276.188,1606.777Z" transform="translate(-209.177 -1581.757)" fill="#fafafa"/><path d="M251.907,1614.543a.572.572,0,0,1,.431.169,6.117,6.117,0,0,1,3.111-.909,1.9,1.9,0,0,1,1.1.34h0a6.265,6.265,0,0,1,3.459-1.517c.565,0,.9.2,1.019.544a7.13,7.13,0,0,1,3.163-.965c1.127,0,1.644.563,1.525,1.429a3.672,3.672,0,0,1,1.5-.394c.6,0,.893.287.861.732h.158c.921.075,1.292.649.878,1.307H250.3A2.345,2.345,0,0,1,251.907,1614.543Z" transform="translate(-221.023 -1577.329)" fill="#fafafa"/><ellipse cx="13.792" cy="13.733" rx="13.792" ry="13.733" transform="translate(143.856 6.014)" fill="#f0f0f0"/><path d="M314.716,1603.424a1.783,1.783,0,0,1,1.1.335,16.867,16.867,0,0,1,7.559-1.806,5.794,5.794,0,0,1,2.767.673,16.444,16.444,0,0,1,8.333-3.016c1.389,0,2.269.394,2.6,1.079a20.03,20.03,0,0,1,7.67-1.913c3.581,0,4.815,1.85,3.455,4.448,1.688.046,3.111,1.07,1.9,1.991H310.554c.048-.056.095-.114.15-.173A5.925,5.925,0,0,1,314.716,1603.424Z" transform="translate(-190.732 -1584.08)" fill="#fafafa"/><path d="M331.642,1617.659a.827.827,0,0,1,.628.248,8.783,8.783,0,0,1,4.5-1.318,2.7,2.7,0,0,1,1.582.492h0a9.026,9.026,0,0,1,5-2.193c.814,0,1.313.292,1.474.787a10.377,10.377,0,0,1,4.567-1.393c1.629,0,2.371.815,2.206,2.066a5.37,5.37,0,0,1,2.161-.578c.87,0,1.294.413,1.25,1.06h.225c1.331.109,1.874.94,1.273,1.893H329.32A3.373,3.373,0,0,1,331.642,1617.659Z" transform="translate(-181.298 -1576.284)" fill="#fafafa"/></g><g transform="translate(22.18 137.727)"><ellipse cx="76.644" cy="4.456" rx="76.644" ry="4.456" fill="#f5f5f5"/></g><g transform="translate(94.368 19.353)"><path d="M333.554,1649.268l.378-.115.941,3.055-.378.116Z" transform="translate(-273.537 -1578.109)" fill="#f1b528"/><path d="M331.136,1641.415l.378-.115,2.8,9.091-.378.116Z" transform="translate(-274.753 -1582.057)" fill="#f1b528"/><path d="M337.2,1615.974H323.144l-29.31,95.146a4.971,4.971,0,0,0,4.762,6.4h63.16a4.954,4.954,0,0,0,4.764-6.412Z" transform="translate(-293.614 -1594.787)" fill="#f1b528"/><path d="M327.956,1615.974h-7.028l-8.914,101.549h40.493a4.954,4.954,0,0,0,4.764-6.412Z" transform="translate(-284.366 -1594.787)" fill="#263238" opacity="0.2" style="isolation:isolate"/><path d="M323.727,1615.974h-3.3l10.061,101.549h17.789a4.959,4.959,0,0,0,4.764-6.412Z" transform="translate(-280.137 -1594.787)" fill="#263238" opacity="0.2" style="isolation:isolate"/><path d="M323.145,1615.974h3.387l-24.243,101.549H298.6a4.954,4.954,0,0,1-4.762-6.412Z" transform="translate(-293.615 -1594.787)" fill="#fff" opacity="0.2" style="isolation:isolate"/><path d="M322.32,1613.457h0a9.323,9.323,0,0,1,9.013,6.876l4.538,16.807-1.207,5.313-4.616-4.353-4.376,10.005-3.985-6.955-4.948,6.955-2.15-10.431-4.5,5.936-1.067-6.864,4.269-16.357A9.322,9.322,0,0,1,322.32,1613.457Z" transform="translate(-285.869 -1596.053)" fill="#f1b528"/><path d="M322.32,1613.457h0a9.323,9.323,0,0,1,9.013,6.876l4.538,16.807-1.207,5.313-4.616-4.353-4.376,10.005-3.985-6.955-4.948,6.955-2.15-10.431-4.5,5.936-1.067-6.864,4.269-16.357A9.322,9.322,0,0,1,322.32,1613.457Z" transform="translate(-285.869 -1596.053)" fill="#f6e5bf" opacity="0.7" style="isolation:isolate"/><path d="M314.388,1718.964a.394.394,0,0,1-.359-.228l-6.7-14.453a.393.393,0,0,1,.09-.452l26.09-24.332L317.3,1648.057a.416.416,0,0,1-.041-.248l5.67-33.585a.4.4,0,0,1,.79.129l-5.649,33.456,16.277,31.59a.393.393,0,0,1-.078.464l-26.09,24.341,6.577,14.205a.392.392,0,0,1-.189.523A.417.417,0,0,1,314.388,1718.964Z" transform="translate(-286.739 -1595.835)" fill="#fff"/><ellipse cx="4.02" cy="4.003" rx="4.02" ry="4.003" transform="translate(43.217 79.736)" fill="#f1b528"/><path d="M326.531,1663.471a4.4,4.4,0,1,1,4.415-4.4A4.406,4.406,0,0,1,326.531,1663.471Zm0-8a3.61,3.61,0,1,0,3.625,3.61v0A3.618,3.618,0,0,0,326.531,1655.469Z" transform="translate(-279.288 -1575.33)" fill="#fff"/><ellipse cx="4.032" cy="4.014" rx="4.032" ry="4.014" transform="translate(17.332 103.907)" fill="#f1b528"/><path d="M309.032,1679.8a4.4,4.4,0,1,1,4.416-4.4v0A4.407,4.407,0,0,1,309.032,1679.8Zm0-8a3.61,3.61,0,1,0,3.625,3.609,3.618,3.618,0,0,0-3.625-3.609Z" transform="translate(-288.084 -1567.123)" fill="#fff"/><ellipse cx="4.02" cy="4.003" rx="4.02" ry="4.003" transform="translate(26.885 48.038)" fill="#f1b528"/><path d="M315.66,1642.374a4.4,4.4,0,1,1,4.415-4.4A4.407,4.407,0,0,1,315.66,1642.374Zm0-8.005a3.609,3.609,0,1,0,3.625,3.61A3.617,3.617,0,0,0,315.66,1634.369Z" transform="translate(-284.753 -1585.936)" fill="#fff"/><ellipse cx="4.032" cy="4.014" rx="4.032" ry="4.014" transform="translate(32.692 14.048)" fill="#f1b528"/><path d="M319.431,1620.02a4.4,4.4,0,1,1,4.415-4.4v0A4.408,4.408,0,0,1,319.431,1620.02Zm0-8a3.61,3.61,0,1,0,3.625,3.609A3.618,3.618,0,0,0,319.431,1612.019Z" transform="translate(-282.857 -1597.173)" fill="#fff"/><path d="M318.078,1620.349a.394.394,0,0,1-.4-.392v-17.688a.4.4,0,0,1,.79,0v17.688A.394.394,0,0,1,318.078,1620.349Z" transform="translate(-281.516 -1601.875)" fill="#f1b528"/><path d="M307.337,1609.157c3.557,1.2,7.084-1.181,10.629,0v-6.014c-3.557-1.181-7.087,1.2-10.629,0Z" transform="translate(-286.717 -1601.408)" fill="#f1b528"/><path d="M309.92,1603.37v6.011c2.25-.3,4.5-.984,6.747-.221v-6.014C314.419,1602.383,312.17,1603.071,309.92,1603.37Z" transform="translate(-285.418 -1601.411)" opacity="0.2" style="isolation:isolate"/><path d="M310.872,1608.264c3.558,1.205,7.088-1.181,10.63,0v-6.009c-3.558-1.205-7.084,1.179-10.63,0Z" transform="translate(-284.94 -1601.861)" fill="#f1b528"/></g><g transform="translate(51.268 21.82)"><path d="M273.339,1631.141l1.229,1.969-3.53.448a16.4,16.4,0,0,1,.335-1.928.911.911,0,0,1,1.071-.686Z" transform="translate(-261.865 -1589.738)" fill="#7f3e3b"/><path d="M274.275,1635.534l-2.747-.838-.49-1.866,3.53-.448Z" transform="translate(-261.865 -1589.006)" fill="#7f3e3b"/><path d="M279.421,1620.623c.419-.131.926-.3,1.391-.465s.95-.339,1.42-.52c.936-.37,1.865-.751,2.766-1.181a18.227,18.227,0,0,0,4.744-3.011,6.527,6.527,0,0,0,.79-.9l.078-.114c.021,0,.1-.2-.059.165a1.507,1.507,0,0,0-.08.658v.117l.021.083a.6.6,0,0,0,.027.075v.047c.051.115.068.107.059.087a1.472,1.472,0,0,0-.095-.146,6.788,6.788,0,0,0-.885-.9c-.359-.316-.739-.639-1.135-.953-1.581-1.259-3.324-2.5-5.011-3.736l1.026-1.916a41.2,41.2,0,0,1,5.93,2.813c.482.284.969.575,1.452.913a10.646,10.646,0,0,1,1.486,1.216,3.774,3.774,0,0,1,.854,1.252l.051.138.051.173a.843.843,0,0,0,.043.177,1.7,1.7,0,0,1,.029.217,2.43,2.43,0,0,1-.126,1.047,2.555,2.555,0,0,1-.254.515l-.131.221a9.977,9.977,0,0,1-1.186,1.573,20.382,20.382,0,0,1-5.763,4.105,33.664,33.664,0,0,1-3.091,1.37q-.791.306-1.581.578c-.538.189-1.044.343-1.645.511Z" transform="translate(-257.651 -1601.256)" fill="#7f3e3b"/><path d="M281.193,1607.544l-2.1,1.37,3.012.689.771-2.118Z" transform="translate(-257.817 -1601.521)" fill="#7f3e3b"/><path d="M284.453,1608.6l-2.582-1.114-.79,2.114s2.053,2.141,3.353.712Z" transform="translate(-256.816 -1601.521)" fill="#7f3e3b"/><path d="M276.461,1619.63c-.974,1.755-1.958,3.57-2.894,5.362s-1.857,3.608-2.625,5.411c-.2.453-.4.9-.541,1.342l-.06.15a.107.107,0,0,0,0-.044v-.032a.329.329,0,0,0,0,.2,3.232,3.232,0,0,0,.424.936,10.792,10.792,0,0,0,.759,1.086,40.967,40.967,0,0,0,4.114,4.259l-1.217,1.8a24.292,24.292,0,0,1-5.419-3.728,12.146,12.146,0,0,1-1.222-1.31,7.14,7.14,0,0,1-1.064-1.787,4.167,4.167,0,0,1-.3-1.315,3.459,3.459,0,0,1,.041-.787,3.4,3.4,0,0,1,.09-.421l.068-.221c.158-.538.328-1.07.509-1.573a60.087,60.087,0,0,1,2.522-5.9c.941-1.905,1.917-3.748,3.008-5.59Z" transform="translate(-264.192 -1596.505)" fill="#7f3e3b"/><path d="M275.1,1610.516c-.257,2.66.122,5.234-.475,7.545,0,0,.664,2.144,4.609,2.144,4.349,0,1.976-2.144,1.976-2.144-2.391-.563-2.4-2.311-2.047-3.957Z" transform="translate(-260.061 -1599.997)" fill="#7f3e3b"/><path d="M274.4,1616.7c-.335-.678-.711-1.458,0-1.7a18.317,18.317,0,0,1,6.519-.036,1.575,1.575,0,0,1,1.127,1.882Z" transform="translate(-260.378 -1597.903)" fill="#263238"/><path d="M268.911,1680.66a3.624,3.624,0,0,1-.79-.282.074.074,0,0,1-.039-.071.075.075,0,0,1,.048-.068c.129-.043,1.261-.445,1.581-.2a.237.237,0,0,1,.083.233.432.432,0,0,1-.233.354A.939.939,0,0,1,268.911,1680.66Zm-.553-.338a1.538,1.538,0,0,0,1.115.177.3.3,0,0,0,.155-.243c0-.06,0-.083-.029-.095-.158-.131-.783.012-1.241.161Z" transform="translate(-263.352 -1565.087)" fill="#f1b528"/><path d="M268.141,1680.67l-.039-.02a.076.076,0,0,1-.02-.075c0-.039.277-.914.7-1.13a.4.4,0,0,1,.335-.027h0a.242.242,0,0,1,.191.24c0,.358-.771.9-1.131,1.007Zm.894-1.122a.263.263,0,0,0-.182.031,1.788,1.788,0,0,0-.572.89c.367-.173.873-.6.878-.814,0-.02,0-.063-.092-.095h0Z" transform="translate(-263.353 -1565.372)" fill="#f1b528"/><path d="M282.486,1682.067a3.692,3.692,0,0,1-.831-.114.076.076,0,0,1-.056-.059.073.073,0,0,1,.036-.075c.114-.075,1.139-.7,1.491-.52a.242.242,0,0,1,.126.213.435.435,0,0,1-.155.392A.949.949,0,0,1,282.486,1682.067Zm-.613-.221a1.521,1.521,0,0,0,1.127-.055.3.3,0,0,0,.1-.27c0-.06-.027-.08-.047-.087-.182-.095-.763.177-1.183.413Z" transform="translate(-256.556 -1564.431)" fill="#f1b528"/><path d="M281.674,1682.193a.091.091,0,0,1-.042,0,.084.084,0,0,1-.033-.072c0-.039.08-.948.448-1.247a.419.419,0,0,1,.32-.1h0a.244.244,0,0,1,.237.2c.066.353-.567,1.043-.894,1.22Zm.642-1.283a.282.282,0,0,0-.174.066,1.825,1.825,0,0,0-.376.992c.328-.248.732-.788.691-.98,0-.02,0-.063-.11-.075h-.032Z" transform="translate(-256.556 -1564.679)" fill="#f1b528"/><path d="M279.377,1683.89h2.9l.032-6.7H279.4Z" transform="translate(-257.673 -1566.478)" fill="#7f3e3b"/><path d="M265.837,1682.075l2.775.535,2.309-6.565-2.775-.535Z" transform="translate(-264.48 -1567.325)" fill="#7f3e3b"/><path d="M269.442,1680.206l-3.2-.676a.242.242,0,0,0-.274.141l-1,2.417a.445.445,0,0,0,.258.574.392.392,0,0,0,.071.021c1.118.216,1.671.267,3.075.566.863.182,2.625.649,3.818.9s1.554-.9,1.083-1.11a7.465,7.465,0,0,1-3.4-2.562A.725.725,0,0,0,269.442,1680.206Z" transform="translate(-264.934 -1565.307)" fill="#263238"/><path d="M282.585,1681.427h-3.162a.245.245,0,0,0-.24.2l-.475,2.57a.436.436,0,0,0,.358.5.372.372,0,0,0,.081.007c1.142,0,2.8-.083,4.233-.083,1.68,0,1.763.09,3.736.09,1.186,0,1.474-1.2.972-1.31a11.5,11.5,0,0,1-4.786-1.752A1.4,1.4,0,0,0,282.585,1681.427Z" transform="translate(-258.013 -1564.35)" fill="#263238"/><path d="M273.393,1616c-2.672.727-5.831,8.084-5.831,8.084l6.134,3.452s1.435-2.606,2.851-5.833C278.031,1618.325,277.852,1614.795,273.393,1616Z" transform="translate(-263.612 -1597.361)" fill="#263238"/><path d="M288.931,1629.14c0,3.228-.218,7.241-.7,12.224H272.7c-.189-2.244.739-12.732-1.471-23.328a1.781,1.781,0,0,1,1.372-2.113l.114-.021c.942-.137,2.119-.28,3.277-.334a57.589,57.589,0,0,1,6.6,0,26.316,26.316,0,0,1,2.712.394,3.4,3.4,0,0,1,2.633,2.4,29.754,29.754,0,0,1,.885,6.152C288.9,1625.849,288.943,1627.377,288.931,1629.14Z" transform="translate(-261.791 -1597.505)" fill="#263238"/><path d="M278.888,1622.213c2.419,1.334,7.982-.189,7.982-.189l-.288-7.5a22.055,22.055,0,0,0-5.859,1.573C276.936,1617.628,276.161,1620.71,278.888,1622.213Z" transform="translate(-258.735 -1597.982)" fill="#263238"/><path d="M281.784,1615.131s-1.122.394-1.537.515c-1.491,1.629-2.419,5.168-2.419,5.168l1.9,2.5C279.005,1619.614,281.784,1615.131,281.784,1615.131Z" transform="translate(-258.452 -1597.678)" fill="#f1b528"/><path d="M281.784,1615.131s-1.122.394-1.537.515c-1.491,1.629-2.419,5.168-2.419,5.168l1.9,2.5C279.005,1619.614,281.784,1615.131,281.784,1615.131Z" transform="translate(-258.452 -1597.678)" opacity="0.2" style="isolation:isolate"/><path d="M284.477,1627.987c-1.482,1.137-4.427-1.507-4.427-1.507l.087,1.342c2.7,2.248,4.3,1.135,4.3,1.135A3.386,3.386,0,0,0,284.477,1627.987Z" transform="translate(-257.335 -1591.972)" fill="#f1b528"/><path d="M284.477,1627.987c-1.482,1.137-4.427-1.507-4.427-1.507l.087,1.342c2.7,2.248,4.3,1.135,4.3,1.135A3.386,3.386,0,0,0,284.477,1627.987Z" transform="translate(-257.335 -1591.972)" opacity="0.2" style="isolation:isolate"/><path d="M274.459,1615.474a7.786,7.786,0,0,0-1.316.212,9.218,9.218,0,0,0-.431,5.323l1.709-.765A11.764,11.764,0,0,1,274.459,1615.474Z" transform="translate(-261.128 -1597.505)" fill="#f1b528"/><path d="M274.459,1615.474a7.786,7.786,0,0,0-1.316.212,9.218,9.218,0,0,0-.431,5.323l1.709-.765A11.764,11.764,0,0,1,274.459,1615.474Z" transform="translate(-261.128 -1597.505)" opacity="0.2" style="isolation:isolate"/><path d="M273.192,1619.267c.93-1.444,8.06-1.283,9.6-.1s3.4,14.1,1.123,15.547-12.8,2.134-12.878-.786,2.32-8,2.036-9.676S271.931,1621.234,273.192,1619.267Z" transform="translate(-261.866 -1596.118)" fill="#f1b528"/><path d="M272.537,1621.994s2.6,1.009,8.1-.216C279.57,1622.337,273.916,1623.608,272.537,1621.994Z" transform="translate(-261.111 -1594.336)" fill="#263238" opacity="0.4" style="isolation:isolate"/><path d="M274.873,1621.817c.033.241-.1.437-.3.437a.486.486,0,0,1-.424-.437c-.032-.24.1-.437.3-.437A.483.483,0,0,1,274.873,1621.817Z" transform="translate(-260.305 -1594.536)" fill="#263238" opacity="0.4" style="isolation:isolate"/><path d="M278.854,1634.554h-.027a.1.1,0,0,1-.071-.114l0-.008c.839-2.754.735-6.51-.308-11.213a7.013,7.013,0,0,1,.32-4.231.1.1,0,0,1,.138-.027.1.1,0,0,1,.027.138,6.954,6.954,0,0,0-.3,4.077c1.055,4.723,1.158,8.544.308,11.312A.1.1,0,0,1,278.854,1634.554Z" transform="translate(-258.225 -1595.761)" fill="#263238" opacity="0.4" style="isolation:isolate"/><g transform="translate(2.472 108.185)" opacity="0.2"><path d="M282.306,1677.194l-.016,3.452h-2.905l.016-3.452Z" transform="translate(-260.142 -1674.663)"/><path d="M267.773,1675.51l2.775.535-1.194,3.385-2.775-.535Z" transform="translate(-266.579 -1675.51)"/></g><path d="M285.284,1632.708s-2.439,22.093-3.93,30.359c-1.629,9.052-10.068,37.521-10.068,37.521l-5.2-1.1s5.811-26.619,6.594-35.6c.846-9.742,2.582-31.2,2.582-31.2Z" transform="translate(-264.355 -1588.849)" fill="#f1b528"/><path d="M272.577,1677.1l-.885,1.894-5.855-1.241.419-1.767Z" transform="translate(-264.48 -1567.088)" fill="#263238"/><path d="M278.6,1637.952c-3.779.744-2.83,14.894-2.087,22.171.9-5.144,2.123-15.043,2.95-22.069A1.315,1.315,0,0,0,278.6,1637.952Z" transform="translate(-259.453 -1586.221)" opacity="0.2" style="isolation:isolate"/><path d="M285.944,1632.7s1.237,21.621,1.265,30.437c.024,9.171-2.029,39.2-2.029,39.2h-4.917s-1.324-29.5-1.893-38.5c-.621-9.84-2.637-31.138-2.637-31.138Z" transform="translate(-259.505 -1588.844)" fill="#f1b528"/><path d="M284.744,1677.747c.024,0-.2,2.035-.2,2.035h-5.985l-.23-1.814Z" transform="translate(-258.198 -1566.2)" fill="#263238"/><path d="M279.331,1608.831c.032.233.182.394.337.394s.249-.212.218-.445-.186-.394-.337-.394S279.3,1608.6,279.331,1608.831Z" transform="translate(-257.699 -1601.068)" fill="#263238"/><path d="M279.437,1608.955a8.7,8.7,0,0,0,1.4,1.861,1.34,1.34,0,0,1-1.088.323Z" transform="translate(-257.643 -1600.782)" fill="#630f0f"/><path d="M279.812,1607.776a.148.148,0,0,0,.087-.095.135.135,0,0,0-.1-.168v0a1.367,1.367,0,0,0-1.187.339.138.138,0,0,0-.035.191.14.14,0,0,0,.194.035.114.114,0,0,0,.027-.025,1.069,1.069,0,0,1,.945-.271A.162.162,0,0,0,279.812,1607.776Z" transform="translate(-258.086 -1601.52)" fill="#263238"/><path d="M274.14,1610.422c.582,2.822.79,4.495,2.427,5.805a3.752,3.752,0,0,0,6.116-2.594c.252-2.613-.739-6.786-3.7-7.632a3.781,3.781,0,0,0-4.843,4.421Z" transform="translate(-260.351 -1602.356)" fill="#7f3e3b"/><path d="M281.231,1612c-.482,1.488-3.163,4.329-4.116,4.55s-3.557-2.023-3.791-3.2c-.948-.106-1.976-1.991-.536-2.732-1.068-.54-.79-3.353,1.38-3.148-1.321-1.268.264-3.412,2.068-2.841.43-1.094,2.866-1.8,4.269-.111,1.094-.613,3.011.622,2.869,2.472a3,3,0,0,1-2.11,2.484C281.733,1610.034,281.231,1612,281.231,1612Z" transform="translate(-261.345 -1603.516)" fill="#263238"/><path d="M277.224,1609.338a3.4,3.4,0,0,0,1.094,1.818c.732.622,1.316.114,1.3-.739a2.571,2.571,0,0,0-1.238-2.311C277.559,1607.811,277.042,1608.492,277.224,1609.338Z" transform="translate(-258.773 -1601.245)" fill="#7f3e3b"/></g></svg>