<svg xmlns="http://www.w3.org/2000/svg" xmlns:xlink="http://www.w3.org/1999/xlink" width="350" height="101.125" viewBox="0 0 350 101.125"><defs><clipPath id="a"><rect width="350" height="101.125" fill="none"/></clipPath></defs><g transform="translate(175 50.562)"><g transform="translate(-175 -50.562)" clip-path="url(#a)"><g clip-path="url(#a)"><g opacity="0"><g clip-path="url(#a)"><rect width="350" height="101.125" fill="#f7b52c"/></g></g><path d="M187.008,62.525a3.2,3.2,0,0,0-3.823,2.48A23.261,23.261,0,0,1,165.1,82.986a23.664,23.664,0,0,1-9.3,0A23.261,23.261,0,0,1,137.82,64.9a23.457,23.457,0,0,1,0-9.3A23.284,23.284,0,0,1,155.8,37.621a23.561,23.561,0,0,1,9.3,0,23.044,23.044,0,0,1,8.267,3.513,3.239,3.239,0,1,0,3.617-5.373,29.409,29.409,0,1,0,12.5,30.484,3.2,3.2,0,0,0-2.48-3.823" transform="translate(4.37 1.027)" fill="#f7b52c"/><path d="M252.535,35.45a18.187,18.187,0,0,0-5.683-3.41,19.841,19.841,0,0,0-13.744,0,18.187,18.187,0,0,0-5.684,3.41,17.053,17.053,0,0,0-2.17,2.377,16.947,16.947,0,0,0-2.17-2.377,18.188,18.188,0,0,0-5.684-3.41,19.841,19.841,0,0,0-13.744,0,18.187,18.187,0,0,0-5.683,3.41,16.43,16.43,0,0,0-3.927,5.167,15.087,15.087,0,0,0-1.447,6.51V86.7a3.2,3.2,0,0,0,6.407,0V47.127a8.681,8.681,0,0,1,.827-3.72,10.024,10.024,0,0,1,2.377-3.2,11.78,11.78,0,0,1,3.72-2.17,13.33,13.33,0,0,1,9.3,0,11.78,11.78,0,0,1,3.72,2.17,10.023,10.023,0,0,1,2.377,3.2,8.68,8.68,0,0,1,.827,3.72V86.7a3.2,3.2,0,1,0,6.407,0V47.127a8.68,8.68,0,0,1,.62-3.72,10.024,10.024,0,0,1,2.377-3.2,11.78,11.78,0,0,1,3.72-2.17,13.33,13.33,0,0,1,9.3,0,11.781,11.781,0,0,1,3.72,2.17,10.024,10.024,0,0,1,2.377,3.2,8.68,8.68,0,0,1,.827,3.72V86.7a3.2,3.2,0,0,0,6.407,0V47.127a15.087,15.087,0,0,0-1.447-6.51,16.43,16.43,0,0,0-3.927-5.27" transform="translate(6.426 1.028)" fill="#f7b52c"/><path d="M60.1,9.8A3.2,3.2,0,0,0,56.9,13V61.055a23.148,23.148,0,1,1-46.295,0V13A3.2,3.2,0,0,0,4.2,13V61.055a29.606,29.606,0,0,0,59.212,0V13a3.2,3.2,0,0,0-3.2-3.2" transform="translate(0.14 0.327)" fill="#f7b52c"/><path d="M119.433,39.378a29.451,29.451,0,0,0-9.4-6.3,29.645,29.645,0,1,0,9.4,6.3m.413,29.968A22.98,22.98,0,1,1,118.5,48.575l-3.2.517a.827.827,0,0,0-.517.31v.31a.827.827,0,0,0,0,.31l.62,2.687-2.687-.62h-.62a.827.827,0,0,0-.31.517l-.413,2.687-1.86-1.343V51.365a.827.827,0,0,0-.207-.517l-2.377-2.273a.827.827,0,1,0-1.137,1.137l1.963,1.963v2.687l-2.067,3.1A.81.81,0,0,0,105.9,58.5h.413a.827.827,0,0,0,.62-.31l1.757-2.583,2.583,1.86h.62l.413-.31h0v-.31l.413-3.1,3.1.723h.827v-.207h0a.827.827,0,0,0,0-.413l-.723-3.1,2.893-.413.62,1.24a23.251,23.251,0,0,1,0,18.084" transform="translate(2.297 1.026)" fill="#f7b52c"/><path d="M311.133,39.378a29.554,29.554,0,0,0-9.4-6.3,29.645,29.645,0,1,0,9.4,6.3m.413,29.968a23.225,23.225,0,1,1-12.3-30.381h.1l-.62.517v.207l-.827,2.79h-2.067l-2.067.827-1.757-2.17a.827.827,0,0,0-.62-.31h-3.513a.827.827,0,0,0,0,1.653h3.2l1.757,2.17h0v2.687a.413.413,0,0,0,.1.31l2.893,2.273-1.137,1.86a.413.413,0,0,0,0,.413l1.24,2.17.413,2.17-3.307,1.757-2.067-1.757-.62-.207a.827.827,0,0,0-.517.31l-2.79,4.34a.827.827,0,0,0,.207,1.137h.413a.827.827,0,0,0,.723-.413l2.273-3.513,1.757,1.447a.827.827,0,0,0,.93.1l3.927-2.067,3.41-.517,3.72,1.757h.1a.413.413,0,0,0,.413-.207l1.033-2.17,3.513.517a.413.413,0,0,0,.413-.31l.517-2.79,1.55-1.24a23.044,23.044,0,0,1-.517,16.637" transform="translate(8.693 1.026)" fill="#f7b52c"/><path d="M305.127,31.734h5.89a.827.827,0,0,0,.723-.413l3.617-6.3a.827.827,0,0,0-.31-1.137L310.19,21.4H307.3a.827.827,0,0,0-.827.827v4.857L304.4,30.7a.827.827,0,0,0,.723,1.24m2.893-4.133a.826.826,0,0,0,.1-.413V22.95h1.55l3.823,2.067-3,5.167h-4.03Z" transform="translate(10.152 0.714)" fill="#f7b52c"/><path d="M327.268,37.2l-10.437-3a.827.827,0,0,0-.93,1.033l3.1,8.577a.827.827,0,0,0,.62.517h.207l.62-.207,2.79-2.893,4.34-2.48a.827.827,0,0,0-.207-1.447m-5.063,2.687H322.1l-1.963,2.067-2.17-5.89,7.027,2.067Z" transform="translate(10.538 1.141)" fill="#f7b52c"/><path d="M334.784,26.614l-5.58-4.96H329L325.07,20h-.62l-4.133,1.55a.827.827,0,0,0-.517.723v8.68a.827.827,0,0,0,.31.62l.517.207h.1l5.477-.723h.207l8.267-3.1a.827.827,0,0,0,.207-1.343m-8.99,2.893-4.443.517V22.79l3.307-1.24,3.513,1.343,4.443,3.927Z" transform="translate(10.669 0.667)" fill="#f7b52c"/></g></g></g></svg>